<?xml version="1.0" standalone="no"?>
<!DOCTYPE svg PUBLIC "-//W3C//DTD SVG 1.1//EN" "http://www.w3.org/Graphics/SVG/1.1/DTD/svg11.dtd" >
<svg>
<metadata>
Created by FontForge 20090914 at Sun Aug  9 18:20:37 2020
 By www-data
2007 Vic Fieger
</metadata>
<defs>
<font id="Virgo01" horiz-adv-x="1262" >
  <font-face 
    font-family="Virgo 01"
    font-weight="400"
    font-stretch="normal"
    units-per-em="2048"
    panose-1="2 0 0 0 0 0 0 0 0 0"
    ascent="1638"
    descent="-410"
    x-height="1279"
    cap-height="1278"
    bbox="-159 -387 1354 1803"
    underline-thickness="150"
    underline-position="-142"
    unicode-range="U+0020-U+F002"
  />
<missing-glyph horiz-adv-x="1536" 
d="M256 0v1280h1024v-1280h-1024zM288 32h960v1216h-960v-1216z" />
    <glyph glyph-name=".notdef" horiz-adv-x="1536" 
d="M256 0v1280h1024v-1280h-1024zM288 32h960v1216h-960v-1216z" />
    <glyph glyph-name="space" unicode=" " horiz-adv-x="999" 
 />
    <glyph glyph-name="space" unicode="&#xa0;" horiz-adv-x="999" 
 />
    <glyph glyph-name="exclam" unicode="!" horiz-adv-x="639" 
d="M158 638l-0.000976562 641c0 105.333 53.333 158.333 160 159h2c105.333 0 158 -53.667 158 -161v-640c-0.666992 -106 -54 -159 -160 -159c-105.333 0 -158.666 53.333 -159.999 160zM238.999 20.5c-25.333 13.667 -45.002 33.167 -59.002 58.5s-21 52 -21 80
c0 26.667 6.83301 52.667 20.5 78s33.167 45 58.5 59s52 21 80 21s54.5 -7 79.5 -21s44.5 -33.667 58.5 -59s21 -51.333 21 -78c0 -28 -7.16699 -54.667 -21.5 -80s-34.166 -44.833 -59.499 -58.5s-51.333 -20.5 -78 -20.5c-27.333 -0 -53.666 6.83301 -78.999 20.5z" />
    <glyph glyph-name="quotedbl" unicode="&#x22;" horiz-adv-x="911" 
d="M240 1501c106 0 159.334 -53.333 160.001 -160v-240c0 -107.333 -52.667 -161 -158 -161h-2c-106.667 0 -160 52.667 -160 158v242c1.33301 107.333 54.666 161 159.999 161zM666.001 1501c106 0 159.334 -53.333 160.001 -160v-240c0 -107.333 -52.667 -161 -158 -161
h-2c-106.667 0 -160 52.667 -160 158v242c1.33301 107.333 54.666 161 159.999 161z" />
    <glyph glyph-name="numbersign" unicode="#" horiz-adv-x="1139" 
 />
    <glyph glyph-name="dollar" unicode="$" horiz-adv-x="1139" 
 />
    <glyph glyph-name="percent" unicode="%" horiz-adv-x="1821" 
 />
    <glyph glyph-name="ampersand" unicode="&#x26;" horiz-adv-x="1366" 
 />
    <glyph glyph-name="quotesingle" unicode="'" horiz-adv-x="472" 
d="M240 1501c106 0 159.334 -53.333 160.001 -160v-240c0 -107.333 -52.667 -161 -158 -161h-2c-106.667 0 -160 52.667 -160 158v242c1.33301 107.333 54.666 161 159.999 161z" />
    <glyph glyph-name="parenleft" unicode="(" horiz-adv-x="682" 
 />
    <glyph glyph-name="parenright" unicode=")" horiz-adv-x="682" 
 />
    <glyph glyph-name="asterisk" unicode="*" horiz-adv-x="797" 
 />
    <glyph glyph-name="plus" unicode="+" horiz-adv-x="1196" 
 />
    <glyph glyph-name="comma" unicode="," horiz-adv-x="639" 
d="M318 314c106 0 159.334 -53.333 160.001 -160v-239c0 -107.333 -52.667 -161 -158 -161h-2c-106.667 0 -160 52.667 -160 158v241c1.33301 107.333 54.666 161 159.999 161z" />
    <glyph glyph-name="hyphen" unicode="-" horiz-adv-x="840" 
d="M102 755c1.33301 106.667 54 161 158 163h322c106.667 -1.33301 160.667 -55 162 -161c-2 -106.667 -55.667 -160 -161 -160h-324c-104 0 -156.333 52.667 -157 158z" />
    <glyph glyph-name="hyphen" unicode="&#xad;" horiz-adv-x="840" 
d="M102 755c1.33301 106.667 54 161 158 163h322c106.667 -1.33301 160.667 -55 162 -161c-2 -106.667 -55.667 -160 -161 -160h-324c-104 0 -156.333 52.667 -157 158z" />
    <glyph glyph-name="period" unicode="." horiz-adv-x="639" 
d="M318 319c26.667 0 52.668 -6.83301 78.001 -20.5s45.166 -33.167 59.499 -58.5s21.5 -52.333 21.5 -81c0 -26.667 -7 -52.667 -21 -78s-33.5 -45 -58.5 -59s-51.5 -21 -79.5 -21c-27.333 0 -53.666 7 -78.999 21s-45 33.667 -59 59s-21 51.333 -21 78
c0 28.667 7 55.667 21 81s33.667 44.833 59 58.5s51.666 20.5 78.999 20.5z" />
    <glyph glyph-name="slash" unicode="/" horiz-adv-x="569" 
 />
    <glyph glyph-name="zero" unicode="0" horiz-adv-x="1421" 
d="M710 1279c108 0 213.001 -27.667 315.001 -83s182 -134.333 240 -237s87 -209.667 87 -321c0 -110.667 -28.167 -216.834 -84.5 -318.501s-135.5 -180.667 -237.5 -237s-208.667 -84.5 -320 -84.5c-110.667 0 -216.834 28.167 -318.501 84.5s-180.667 135.333 -237 237
s-84.5 207.834 -84.5 318.501c0 111.333 28.5 218.333 85.5 321s136.667 181.667 239 237s207.5 83 315.5 83zM553.501 919c-51 -27.333 -90.834 -66.666 -119.501 -117.999s-43 -105 -43 -161s14.167 -109.333 42.5 -160s67.833 -90 118.5 -118s104 -42 160 -42
c55.333 0 108.5 14 159.5 42s90.5 67.333 118.5 118s42 104 42 160s-14.333 109.667 -43 161s-68.667 90.666 -120 117.999s-103.666 41 -156.999 41c-54.667 0 -107.5 -13.667 -158.5 -41zM710 796c26.667 0 52.6689 -6.83301 78.002 -20.5s45.166 -33.167 59.499 -58.5
s21.5 -52.333 21.5 -81c0 -26.667 -7 -52.667 -21 -78s-33.5 -45 -58.5 -59s-51.5 -21 -79.5 -21s-54.667 7 -80 21s-44.833 33.667 -58.5 59s-20.5 51.333 -20.5 78c0 28.667 7 55.667 21 81s33.667 44.833 59 58.5s51.666 20.5 78.999 20.5z" />
    <glyph glyph-name="one" unicode="1" horiz-adv-x="940" 
d="M71 162c0 106.667 53.332 160.001 159.999 160.001h82v637c-106 -1.33301 -158.333 51.667 -157 159c0.666992 103.333 53.334 156.666 158.001 159.999h163c103.333 0 155.333 -52 156 -156v-800h80c108 -1.33301 162 -56.333 162 -165
c-0.666992 -102 -50.667 -153.667 -150 -155l-494 -2c-106 2 -159.333 56 -160 162z" />
    <glyph glyph-name="two" unicode="2" 
d="M634 1279c372 0 558.332 -213.332 558.999 -639.999c0 -106.667 -53.333 -159.667 -160 -159l-641 1c0.666992 -107.333 80.334 -161.333 239.001 -162l402 2c104.667 -0.666992 158 -54.334 160 -161.001c-0.666992 -106.667 -54 -160 -160 -160h-400
c-374 0.666992 -561.333 214 -562 640c0.666992 106 54 159.333 160 160l641 -1c0 106.667 -79 159.667 -237 159h-402c-106 2.66699 -160 56.667 -162 162c2.66699 106 56 159 160 159h403z" />
    <glyph glyph-name="three" unicode="3" 
d="M231 1279l559.999 0.000976562c106 0 199.667 -40 281 -120c79.333 -78.667 119 -170.334 119 -275.001v-5c-1.33301 -107.333 -29 -186.333 -83 -237c56 -55.333 84 -134 84 -236v-6c-1.33301 -105.333 -42.166 -198.333 -122.499 -279s-169.833 -121 -268.5 -121h-574
c-104 -0 -156 53.333 -156 160c0 105.333 53.333 158 160 158l558 3c54 0 81 26.333 81 79c0 54 -26.333 81 -79 81l-242 1c-108 0 -161.667 56 -161 168c0 101.333 53.333 151.333 160 150l243 -1c53.333 0 79.333 29.333 78 88c1.33301 47.333 -24.667 71 -78 71h-560
c-106.667 0 -160 53.667 -160 161c0 106 53.333 159.333 160 160z" />
    <glyph glyph-name="four" unicode="4" horiz-adv-x="1249" 
d="M219 -1c-27.333 0 -53.666 6.66602 -78.999 19.999s-45.166 32.833 -59.499 58.5s-21.5 52.5 -21.5 80.5s51.5 145.667 154.5 353s161.333 323.666 175 348.999s33.334 45.166 59.001 59.499s52.5 21.5 80.5 21.5c27.333 0 53.666 -7.16699 78.999 -21.5
s45.166 -34.166 59.499 -59.499s22.166 -53.666 23.499 -84.999s-69.667 -182.666 -213 -453.999h380l-1 803c0 104 53.667 156.667 161 158c106.667 -1.33301 160.667 -54 162 -158l-2 -1284c0 -104.667 -53.333 -158.667 -160 -162c-106.667 4 -160 58 -160 162v159h-638z
" />
    <glyph glyph-name="five" unicode="5" 
d="M1033 1279c103.333 0 156.333 -53.001 159 -159.001c-2 -105.333 -55.667 -159.333 -161 -162h-641l-2 -161l644 3c106.667 -0.666992 160 -54 160 -160c0 -426 -187.333 -639.333 -562 -640h-399c-106 0 -159.333 53.333 -160 160
c1.33301 106.667 54.333 160.334 159 161.001l402 -2c158.667 0.666992 238.667 54.667 240 162l-641 -1c-107.333 -0.666992 -160.666 52.333 -159.999 159l-1 481c1.33301 106 54.666 159 159.999 159h803z" />
    <glyph glyph-name="six" unicode="6" horiz-adv-x="1241" 
d="M873 1279c106 0 159.332 -53 159.999 -159s-52 -159.333 -158 -160h-404c-54 -0.666992 -81 -27.667 -81 -81l1 -80l400 1c108 -0.666992 202 -41 282 -121c79.333 -80 119 -172 119 -276v-4c-1.33301 -106 -41.333 -199 -120 -279
c-77.333 -78.667 -168.666 -118 -273.999 -118h-5l-322 -1c-106 0 -199 39.667 -279 119s-120.333 173.333 -121 282v482c0 103.333 40.333 195.333 121 276c79.333 79.333 171.333 119 276 119h405zM391.999 480l-0.000976562 -79c0.666992 -54.667 27 -82 79 -82h323
c54 1.33301 81 28.333 81 81c0.666992 54 -26.666 80.667 -81.999 80h-401z" />
    <glyph glyph-name="seven" unicode="7" horiz-adv-x="1224" 
d="M1021 1277c26.667 0 52.168 -6.33203 76.501 -18.999s43.666 -31.834 57.999 -57.501s21.5 -52.167 21.5 -79.5c0 -28 -80 -202.333 -240 -523s-247.167 -493.667 -261.5 -519s-34.166 -45 -59.499 -59s-51.666 -21 -78.999 -21c-28 0 -54.833 7 -80.5 21
s-45.334 33.667 -59.001 59s-20.834 51.333 -21.501 78c0 24 128 291 384 801h-540c-107.333 2 -161 55.333 -161 160v2c0 104.667 52.333 157 157 157h805z" />
    <glyph glyph-name="eight" unicode="8" horiz-adv-x="1258" 
d="M789 321c54 0 81 26.332 81 78.999c0 54 -26.333 81 -79 81h-322c-53.333 0 -80 -26.667 -80 -80c1.33301 -55.333 28 -82.666 80 -81.999zM469 1279l321.999 -0.000976562c106 0 199.667 -40 281 -120c79.333 -78.667 119 -170.334 119 -275.001v-5
c-1.33301 -107.333 -29 -186.333 -83 -237c56 -55.333 84 -134 84 -236v-6c-1.33301 -105.333 -42.166 -198.333 -122.499 -279s-169.833 -121 -268.5 -121h-334c-104 0 -195.667 40 -275 120c-80.667 80.667 -121 174 -121 280s27 185.667 81 239
c-53.333 52.667 -80.333 133.334 -81 242.001c0 104.667 40.167 196.334 120.5 275.001s172.833 119.667 277.5 123zM790.999 798.998c53.333 0 79.333 29.333 78 88c1.33301 47.333 -24.667 71 -78 71h-322c-53.333 0 -80 -26.333 -80 -79c0 -53.333 26.667 -80 80 -80h322
z" />
    <glyph glyph-name="nine" unicode="9" horiz-adv-x="1258" 
d="M389 1c-105.333 0.666992 -158.333 53.332 -159 157.999c-0.666992 106.667 52 160.334 158 161.001h404c54 1.33301 81 28.333 81 81l-1 79h-400c-108 1.33301 -201.667 42.333 -281 123c-79.333 79.333 -119 171.333 -119 276v3
c0.666992 105.333 40.334 198.333 119.001 279c77.333 78.667 168.666 118 273.999 118h327c106 0 199.167 -39.667 279.5 -119s120.5 -173 120.5 -281v-484c0 -102.667 -40 -194 -120 -274s-172.333 -120 -277 -120h-406zM871 799.998v79c0 54.667 -26 82 -78 82h-324
c-54 -1.33301 -80.667 -28.333 -80 -81c-0.666992 -54 26.333 -80.667 81 -80h401z" />
    <glyph glyph-name="colon" unicode=":" horiz-adv-x="639" 
d="M318 1003c26.667 0 52.668 -6.83301 78.001 -20.5s45.166 -33.167 59.499 -58.5s21.5 -52.333 21.5 -81c0 -26.667 -7 -52.667 -21 -78s-33.5 -45 -58.5 -59s-51.5 -21 -79.5 -21c-27.333 0 -53.666 7 -78.999 21s-45 33.667 -59 59s-21 51.333 -21 78
c0 28.667 7 55.667 21 81s33.667 44.833 59 58.5s51.666 20.5 78.999 20.5zM318.001 424c26.667 0 52.668 -7 78.001 -21s45.166 -33.667 59.499 -59s21.5 -52 21.5 -80c0 -27.333 -7 -53.666 -21 -78.999s-33.5 -45 -58.5 -59s-51.5 -21 -79.5 -21
c-27.333 0 -53.666 7 -78.999 21s-45 33.667 -59 59s-21 51.666 -21 78.999c0 28 7 54.667 21 80s33.667 45 59 59s51.666 21 78.999 21z" />
    <glyph glyph-name="semicolon" unicode=";" horiz-adv-x="639" 
d="M319 1003c26.667 0 52.668 -6.83301 78.001 -20.5s45.166 -33.167 59.499 -58.5s21.5 -52.333 21.5 -81c0 -26.667 -7 -52.667 -21 -78s-33.5 -45 -58.5 -59s-51.5 -21 -79.5 -21c-27.333 0 -53.666 7 -78.999 21s-45 33.667 -59 59s-21 51.333 -21 78
c0 28.667 7 55.667 21 81s33.667 44.833 59 58.5s51.666 20.5 78.999 20.5zM319.001 314c106 0 159.334 -53.333 160.001 -160v-239c0 -107.333 -52.667 -161 -158 -161h-2c-106.667 0 -160 52.667 -160 158v241c1.33301 107.333 54.666 161 159.999 161z" />
    <glyph glyph-name="semicolon" unicode="&#x37e;" horiz-adv-x="639" 
d="M319 1003c26.667 0 52.668 -6.83301 78.001 -20.5s45.166 -33.167 59.499 -58.5s21.5 -52.333 21.5 -81c0 -26.667 -7 -52.667 -21 -78s-33.5 -45 -58.5 -59s-51.5 -21 -79.5 -21c-27.333 0 -53.666 7 -78.999 21s-45 33.667 -59 59s-21 51.333 -21 78
c0 28.667 7 55.667 21 81s33.667 44.833 59 58.5s51.666 20.5 78.999 20.5zM319.001 314c106 0 159.334 -53.333 160.001 -160v-239c0 -107.333 -52.667 -161 -158 -161h-2c-106.667 0 -160 52.667 -160 158v241c1.33301 107.333 54.666 161 159.999 161z" />
    <glyph glyph-name="less" unicode="&#x3c;" horiz-adv-x="1196" 
 />
    <glyph glyph-name="equal" unicode="=" horiz-adv-x="1196" 
 />
    <glyph glyph-name="greater" unicode="&#x3e;" horiz-adv-x="1196" 
 />
    <glyph glyph-name="question" unicode="?" horiz-adv-x="1241" 
d="M521 1440c372 0 558 -133.664 558 -400.997v-2c0 -264.667 -134.667 -396.334 -404 -395.001c-50.667 0 -77.334 -28 -80.001 -84c0 -106.667 -53 -159 -159 -157c-107.333 -1.33301 -160.666 52.667 -159.999 162c0.666992 106 41 198.833 121 278.5
s173.333 118.5 280 116.5c54.667 1.33301 82 28.666 82 81.999s-26.667 79.666 -80 78.999h-396c-106 2.66699 -160 56.667 -162 162c2.66699 106 56 159 160 159h240zM440 319.003c26.667 0 52.668 -7 78.001 -21s45.166 -33.667 59.499 -59s21.5 -52 21.5 -80
c0 -26.667 -7 -52.667 -21 -78s-33.5 -45 -58.5 -59s-51.5 -21 -79.5 -21c-27.333 0 -53.666 7 -78.999 21s-45 33.667 -59 59s-21 51.333 -21 78c0 28 7 54.667 21 80s33.667 45 59 59s51.666 21 78.999 21z" />
    <glyph glyph-name="at" unicode="@" horiz-adv-x="2079" 
 />
    <glyph glyph-name="A" unicode="A" horiz-adv-x="1425" 
d="M232 -1c-27.333 0 -53.667 6.83301 -79 20.5s-45.166 33.334 -59.499 59.001s-21.5 52.5 -21.5 80.5s79.667 202.167 239 522.5s246 493.166 260 518.499s33.833 45.166 59.5 59.499s52.167 21.5 79.5 21.5c28 0 54.667 -7.16699 80 -21.5s45 -34.166 59 -59.499
s101.167 -198.166 261.5 -518.499s240.5 -494.5 240.5 -522.5s-7.16699 -54.833 -21.5 -80.5s-34.333 -45.334 -60 -59.001s-51.834 -20.5 -78.501 -20.5h-959zM929.999 321l-220 451l-220 -451h440z" />
    <glyph glyph-name="B" unicode="B" 
d="M231 1279l559.999 0.000976562c106 0 199.667 -40 281 -120c79.333 -78.667 119 -170.334 119 -275.001v-5c-1.33301 -107.333 -29 -186.333 -83 -237c56 -55.333 84 -134 84 -236v-6c-1.33301 -105.333 -42.166 -198.333 -122.499 -279s-169.833 -121 -268.5 -121h-574
c-104 -0 -156 53.333 -156 160v959c0 106 53.333 159.333 160 160zM391.999 958.001v-637h397c54 0 81 26.333 81 79c0 54 -26.333 81 -79 81l-79 1c-108 0 -161.667 56 -161 168c0 101.333 53.333 151.333 160 150l80 -1c53.333 0 79.333 29.333 78 88
c1.33301 47.333 -24.667 71 -78 71h-399z" />
    <glyph glyph-name="C" unicode="C" 
d="M710 1279l321.002 -0.999023c106 -1.33301 159.333 -54 160 -158c-0.666992 -108 -54.334 -161.667 -161.001 -161l-319 -1c-212.667 2 -319 -104.333 -319 -319c0 -212 106.667 -318.667 320 -320h318c106.667 -2 160 -54.667 160 -158
c0 -106.667 -52.667 -160.334 -158 -161.001h-320c-426.667 -0 -640.334 213.333 -641.001 640c0 426 212.333 639 637 639h2z" />
    <glyph glyph-name="D" unicode="D" horiz-adv-x="1421" 
d="M231 1279l480 0.000976562c427.333 -0.666992 641 -214 641 -640c-0.666992 -424.667 -208.667 -637.667 -624 -639h-497c-106.667 -0.666992 -160 52.666 -160 159.999v959c0 106 53.333 159.333 160 160zM392 958.001l0.000976562 -637h321c212 -2 317.333 105 316 321
c1.33301 210 -104.334 315.333 -317.001 316h-320z" />
    <glyph glyph-name="E" unicode="E" 
d="M231 1281l810 -2c99.333 -1.33301 149.333 -53 150 -155c0 -108.667 -54 -164 -162 -166h-637v-637h636c107.333 -0.666992 161 -54.667 161 -162c0 -104.667 -52.667 -157.667 -158 -159h-800c-106 0 -159.333 51.667 -160 155v964c0.666992 106 54 160 160 162z
M469 636c0.666992 106.667 53.333 160.667 158 162h322c106.667 -0.666992 160.667 -54 162 -160c-2 -106.667 -56 -160 -162 -160h-321c-106 -0.666992 -159 52 -159 158z" />
    <glyph glyph-name="F" unicode="F" 
d="M231 1281l810.001 -2.00098c99.333 -1.33301 149.333 -53 150 -155c0 -108.667 -54 -164 -162 -166h-637v-158h640c105.333 -1.33301 158.333 -54.666 159 -159.999c-1.33301 -106.667 -54.333 -160 -159 -160l-640 -1v-320
c-0.666992 -104.667 -54.334 -157.667 -161.001 -159c-106 0 -159.333 51.667 -160 155v964c0.666992 106 54 160 160 162z" />
    <glyph glyph-name="G" unicode="G" horiz-adv-x="1421" 
d="M710 1279l322.001 1.00098c104 -0.666992 156.667 -54.667 158 -162c-1.33301 -105.333 -54 -157.333 -158 -156l-320 -2c-54.667 0 -107.5 -13.667 -158.5 -41s-90.833 -66.666 -119.5 -117.999s-43 -105 -43 -161s14.167 -109.333 42.5 -160s67.833 -90 118.5 -118
s104 -42 160 -42c55.333 0 111.333 13.167 168 39.5s98 67.166 124 122.499h-134c-108 -0.666992 -162 51.666 -162 156.999c0 106.667 53.333 160.667 160 162l321 -1c108 -2.66699 162.333 -56.667 163 -162c0 -110.667 -28.167 -216.834 -84.5 -318.501
s-135.5 -180.667 -237.5 -237s-208.667 -84.5 -320 -84.5c-110.667 0 -216.834 28.167 -318.501 84.5s-180.667 135.333 -237 237s-84.5 207.834 -84.5 318.501c0 111.333 28.5 218.333 85.5 321s136.667 181.667 239 237s207.5 83 315.5 83z" />
    <glyph glyph-name="H" unicode="H" 
d="M1191 1121l-1.00098 -960.999c0 -106.667 -53 -160 -159 -160h-2c-106.667 0 -159.667 52.667 -159 158v323l-235 -1c-109.333 0 -164.666 53 -165.999 159c0 107.333 55.333 160.666 166 159.999l235 3v319c0 107.333 53.667 161 161 161
c106 0 159.333 -53.667 160 -161zM391.999 1120l-0.999023 -960c-0.666992 -105.333 -54.334 -158.666 -161.001 -159.999c-106 0.666992 -159 53.667 -159 159v960c0 106.667 53.333 160.667 160 162c107.333 -0.666992 161 -54.334 161 -161.001z" />
    <glyph glyph-name="I" unicode="I" horiz-adv-x="464" 
d="M230 1278c106.667 -0.666992 161 -53.333 163 -158v-962c-1.33301 -106 -55 -160 -161 -162c-106.667 2.66699 -160 56.667 -160 162v961c-0.666992 106 52 159 158 159z" />
    <glyph glyph-name="J" unicode="J" horiz-adv-x="711" 
d="M633 1119v-723c0 -156.667 -26.5 -261.834 -79.5 -315.501s-159.167 -80.5 -318.5 -80.5c-106 1.33301 -159.333 54.333 -160 159c0 107.333 53.333 161.333 160 162c52 -1.33301 77.667 24.334 77 77.001l-1 726c1.33301 102 55.333 154.333 162 157
c106.667 -2 160 -56 160 -162z" />
    <glyph glyph-name="K" unicode="K" 
d="M1151 1242c26.667 -25.333 39.999 -63.334 39.999 -114.001v-7c0 -56.667 -28.333 -109.667 -85 -159l-293 -321l294 -319c56 -52 84 -102.333 84 -151c0 -3.33301 -0.333008 -7 -1 -11v-13c0 -47.333 -13 -83.333 -39 -108c-28.667 -26 -68 -39 -118 -39h-4
c-54.667 0 -95.667 13.833 -123 41.5s-93.166 104.334 -197.499 230.001l-197 236c-27 31.667 -41.167 75.5 -42.5 131.5c0 52 13.833 95 41.5 129l200.5 243.5c106 128.333 172.5 205.5 199.5 231.5s67.167 39 120.5 39c52 0 92 -13.333 120 -40zM391.999 1120
l-0.999023 -960c-0.666992 -105.333 -54.334 -158.666 -161.001 -159.999c-106 0.666992 -159 53.667 -159 159v960c0 106.667 53.333 160.667 160 162c107.333 -0.666992 161 -54.334 161 -161.001z" />
    <glyph glyph-name="L" unicode="L" horiz-adv-x="1241" 
d="M231 1281c107.333 -2.66699 161.333 -55 162 -157l-1 -803h636c107.333 -0.666992 161 -54.667 161 -162c0 -104.667 -52.667 -157.667 -158 -159h-800c-106 0 -159.333 51.667 -160 155v964c0.666992 106 54 160 160 162z" />
    <glyph glyph-name="M" unicode="M" horiz-adv-x="1425" 
d="M231 1279c54 -1.33301 93.8301 -14.999 119.497 -40.999l362.5 -362l360 361.5c26.667 27.667 66.334 41.5 119.001 41.5c106 -0.666992 159.333 -53.667 160 -159l1 -960c0 -106.667 -54 -160.667 -162 -162c-105.333 0.666992 -159 54.667 -161 162v565l-200.5 -205.5
c-26.333 -27 -65.833 -40.5 -118.5 -40.5c-51.333 0 -90.666 13.833 -117.999 41.5l-201 201.5v-562c-0.666992 -106 -54 -159.333 -160 -160c-107.333 -0.666992 -160.666 52.666 -159.999 159.999v960c0 106 53 159 159 159z" />
    <glyph glyph-name="N" unicode="N" 
d="M254 1278c58 -4.66699 104.335 -26.668 139.002 -66.001l479 -611v537c2 91.333 47.333 138 136 140c120 -2 180.667 -50 182 -144l1 -995c-0.666992 -91.333 -61.667 -137.666 -183 -138.999c-54.667 0.666992 -99.334 22.667 -134.001 66l-481 609v-536
c-0.666992 -92 -47 -138.333 -139 -139c-120.667 0 -181.334 47 -182.001 141v998c0 92 60.667 138.333 182 139z" />
    <glyph glyph-name="O" unicode="O" horiz-adv-x="1425" 
d="M710 1279c108 0 213.001 -27.667 315.001 -83s182 -134.333 240 -237s87 -209.667 87 -321c0 -110.667 -28.167 -216.834 -84.5 -318.501s-135.5 -180.667 -237.5 -237s-208.667 -84.5 -320 -84.5c-110.667 0 -216.834 28.167 -318.501 84.5s-180.667 135.333 -237 237
s-84.5 207.834 -84.5 318.501c0 111.333 28.5 218.333 85.5 321s136.667 181.667 239 237s207.5 83 315.5 83zM553.501 919c-51 -27.333 -90.834 -66.666 -119.501 -117.999s-43 -105 -43 -161s14.167 -109.333 42.5 -160s67.833 -90 118.5 -118s104 -42 160 -42
c55.333 0 108.5 14 159.5 42s90.5 67.333 118.5 118s42 104 42 160s-14.333 109.667 -43 161s-68.667 90.666 -120 117.999s-103.666 41 -156.999 41c-54.667 0 -107.5 -13.667 -158.5 -41z" />
    <glyph glyph-name="P" unicode="P" 
d="M231 1279l561.999 -0.00195312c102.667 0 194.667 -39.333 276 -118c80.667 -78.667 121 -171 121 -277v-3c0 -110.667 -39.833 -205.167 -119.5 -283.5s-174.167 -117.5 -283.5 -117.5l-158 -2c-105.333 0 -158.333 54 -159 162c0 108 54 161.667 162 161l113 1
c84.667 -1.33301 126.334 24.334 125.001 77.001c0 52.667 -41.667 79 -125 79h-353v-798c0.666992 -106.667 -53 -160 -161 -160c-106.667 0 -160 52.667 -160 158v963c0.666992 104.667 54 157.334 160 158.001z" />
    <glyph glyph-name="Q" unicode="Q" horiz-adv-x="1425" 
d="M710 1279c108 0 213.001 -27.6689 315.001 -83.002s182 -134.333 240 -237s87 -209.667 87 -321c0 -110.667 -43 -217 -129 -319c83.333 0.666992 127 -52.666 131 -159.999c0 -107.333 -54 -161 -162 -161h-482c-110.667 0 -216.834 28.167 -318.501 84.5
s-180.667 135.333 -237 237s-84.5 207.834 -84.5 318.501c0 111.333 28.5 218.333 85.5 321s136.667 181.667 239 237s207.5 83 315.5 83zM553.501 918.998c-51 -27.333 -90.834 -66.666 -119.501 -117.999s-43 -105 -43 -161s14.167 -109.333 42.5 -160
s67.833 -90 118.5 -118s104 -42 160 -42c55.333 0 108.5 14 159.5 42s90.5 67.333 118.5 118s42 104 42 160s-14.333 109.667 -43 161s-68.667 90.666 -120 117.999s-103.666 41 -156.999 41c-54.667 0 -107.5 -13.667 -158.5 -41z" />
    <glyph glyph-name="R" unicode="R" 
d="M231 1279l561.998 -0.00292969c104 0 196.333 -40.333 277 -121s120.667 -173 120 -277c0 -110.667 -20.167 -204 -60.5 -280s-100.833 -115.333 -181.5 -118l197 -200c32 -31.333 48 -72.666 48 -123.999c-2 -106 -55.333 -159 -160 -159h-4
c-53.333 0 -105.666 26 -156.999 78l-320 397c-54 57.333 -81.333 112.333 -82 165c0 108 54 161.667 162 161l113 1c84.667 -1.33301 126.334 24.334 125.001 77.001c0 52.667 -41.667 79 -125 79h-353v-798c0.666992 -106.667 -53 -160 -161 -160
c-106.667 0 -160 52.667 -160 158v963c0.666992 104.667 54 157.334 160 158.001z" />
    <glyph glyph-name="S" unicode="S" 
d="M1193 1120c0 -106.667 -51.334 -160.335 -154.001 -161.002l-487 1c-108 -1.33301 -162.333 -28.666 -163 -81.999c1.33301 -50.667 56 -75.667 164 -75h157c322 -1.33301 483.667 -136.666 485 -405.999c0 -262 -161.333 -393.667 -484 -395h-481
c-106 0.666992 -159 53 -159 157c0.666992 106 53.334 158.333 158.001 157l482 3c108 0.666992 162 28 162 82c0 54.667 -54.667 81.667 -164 81h-157c-320.667 0.666992 -481 132.667 -481 396v5c0 264 160.333 396.333 481 397h481c106 -0.666992 159.333 -54 160 -160z
" />
    <glyph glyph-name="T" unicode="T" horiz-adv-x="1237" 
d="M218 1281l810 -2c99.333 -1.33301 149.333 -53 150 -155c0 -108.667 -54 -164 -162 -166h-239l1 -799c-1.33301 -104.667 -55 -157.667 -161 -159c-106.667 0 -160 51.667 -160 155l1 803h-240c-106.667 0 -160 53.667 -160 161c0.666992 106 54 160 160 162z" />
    <glyph glyph-name="U" unicode="U" horiz-adv-x="1266" 
d="M235 1281c106.667 0 160.335 -51.665 161.002 -154.998l-1 -487c1.33301 -213.333 82.333 -320.333 243 -321c160 1.33301 239.667 108.666 239 321.999v481c1.33301 106 55 159.667 161 161c106 -2.66699 159.333 -56.667 160 -162v-481
c-0.666992 -426 -187.334 -639 -560.001 -639c-374.667 -2.66699 -562.334 210.333 -563.001 639v482c0.666992 105.333 54 158.666 160 159.999z" />
    <glyph glyph-name="V" unicode="V" horiz-adv-x="1383" 
d="M1170 1281c26.667 0 52.8359 -7 78.5029 -21s45.667 -33.833 60 -59.5s21.5 -52.167 21.5 -79.5c0 -28 -80.167 -202.333 -240.5 -523s-247.5 -493.667 -261.5 -519s-33.667 -45 -59 -59s-52 -21 -80 -21c-27.333 0 -53.833 7 -79.5 21s-45.5 33.667 -59.5 59
s-100.667 198.333 -260 519s-239 495 -239 523c0 27.333 7.16699 53.833 21.5 79.5s34.166 45.5 59.499 59.5s51.666 21 78.999 21c26.667 0 52.834 -7 78.501 -21s45.667 -33.833 60 -59.5s127.5 -256.834 339.5 -693.501c214 436.667 328.167 667.834 342.5 693.501
s34.166 45.5 59.499 59.5s51.666 21 78.999 21z" />
    <glyph glyph-name="W" unicode="W" horiz-adv-x="1425" 
d="M71 157l0.000976562 960c0 106.667 52 160 156 160h4c106 -0.666992 159.333 -54 160 -160v-562l201 201.5c27.333 27.667 66.666 41.5 117.999 41.5c52.667 0 92.334 -13.5 119.001 -40.5l200 -205.5v565c2 107.333 55.667 161.333 161 162c108 -2 162 -56 162 -162
l-1 -960c-0.666992 -105.333 -54 -158.333 -160 -159c-52.667 0 -92.334 13.667 -119.001 41l-360 361l-362.5 -361c-25.667 -26 -65.5 -39.667 -119.5 -41c-106 0 -159 53 -159 159z" />
    <glyph glyph-name="X" unicode="X" horiz-adv-x="1271" 
d="M232 1282c53.333 0 93.502 -12.998 120.502 -38.998s121.833 -137.333 284.5 -334c165.333 200 261.5 312.833 288.5 338.5s67.167 38.5 120.5 38.5c52 0 92 -13.333 120 -40c26.667 -25.333 40 -63.333 40 -114v-7c0 -56.667 -28.333 -109.667 -85 -159l-272 -321
l273 -318c56 -52.667 84 -103.334 84 -152.001c0 -3.33301 -0.333008 -7 -1 -11v-13c0 -47.333 -13 -83.333 -39 -108c-29.333 -27.333 -70 -40.333 -122 -39c-54.667 -0.666992 -95.834 13.166 -123.501 41.499s-120.834 138.833 -279.501 331.5
c-162 -196 -256.667 -307.833 -284 -335.5s-68.333 -41.5 -123 -41.5h-4c-50 0 -89 13 -117 39c-26.667 24.667 -40 60.667 -40 108v13c-0.666992 4 -1 7.66699 -1 11c0 48.667 28 99 84 151l285 319l-284 321c-56.667 49.333 -85 102.333 -85 159v7
c0 50.667 13.333 88.667 40 114c28 26.667 68 40 120 40z" />
    <glyph glyph-name="Y" unicode="Y" horiz-adv-x="1249" 
d="M219 1282c53.333 0 93.5 -13 120.5 -39s121.833 -137.333 284.5 -334c165.333 200 261.5 312.833 288.5 338.5s67.167 38.5 120.5 38.5c52 0 92 -13.333 120 -40c26.667 -25.333 40 -62.666 40 -111.999v-9c0 -56.667 -28.333 -109.667 -85 -159l-327 -382l-1 -425
c-2 -104.667 -55.667 -157.667 -161 -159h-7c-100.667 0 -151 54.667 -151 164l-2 422l-315 376c-56.667 49.333 -85 102.333 -85 159v9c0 49.333 13.333 86.666 40 111.999c28 26.667 68 40 120 40z" />
    <glyph glyph-name="Z" unicode="Z" 
d="M1192 1098c-4.66699 -58 -26.667 -104.334 -66 -139.001l-540 -640h466c91.333 -2 138 -47.333 140 -136c-2 -120 -49.667 -180.333 -143 -181l-838 -2c-92 1.33301 -138.667 62.333 -140 183c1.33301 55.333 23.333 100 66 134l544 642h-470
c-92 0.666992 -138.667 47 -140 139c0 120.667 47.333 181.334 142 182.001h841c91.333 0 137.333 -60.667 138 -182z" />
    <glyph glyph-name="bracketleft" unicode="[" horiz-adv-x="569" 
 />
    <glyph glyph-name="backslash" unicode="\" horiz-adv-x="569" 
 />
    <glyph glyph-name="bracketright" unicode="]" horiz-adv-x="569" 
 />
    <glyph glyph-name="asciicircum" unicode="^" horiz-adv-x="961" 
 />
    <glyph glyph-name="underscore" unicode="_" horiz-adv-x="1139" 
 />
    <glyph glyph-name="grave" unicode="`" horiz-adv-x="620" 
d="M402 1688l114 -172c19.333 -29.333 29 -53 29 -71c0 -27.333 -22.667 -41 -68 -41h-1c-75.333 0 -138 38 -188 114l-113 170c-20 30 -30 54.333 -30 73c0 27.333 22.667 41 68 41c74.667 0 137.667 -38 189 -114z" />
    <glyph glyph-name="a" unicode="a" horiz-adv-x="1425" 
d="M232 -1c-27.333 0 -53.667 6.83301 -79 20.5s-45.166 33.334 -59.499 59.001s-21.5 52.5 -21.5 80.5s79.667 202.167 239 522.5s246 493.166 260 518.499s33.833 45.166 59.5 59.499s52.167 21.5 79.5 21.5c28 0 54.667 -7.16699 80 -21.5s45 -34.166 59 -59.499
s101.167 -198.166 261.5 -518.499s240.5 -494.5 240.5 -522.5s-7.16699 -54.833 -21.5 -80.5s-34.333 -45.334 -60 -59.001s-51.834 -20.5 -78.501 -20.5h-959zM929.999 321l-220 451l-220 -451h440z" />
    <glyph glyph-name="b" unicode="b" 
d="M231 1279l559.999 0.000976562c106 0 199.667 -40 281 -120c79.333 -78.667 119 -170.334 119 -275.001v-5c-1.33301 -107.333 -29 -186.333 -83 -237c56 -55.333 84 -134 84 -236v-6c-1.33301 -105.333 -42.166 -198.333 -122.499 -279s-169.833 -121 -268.5 -121h-574
c-104 -0 -156 53.333 -156 160v959c0 106 53.333 159.333 160 160zM391.999 958.001v-637h397c54 0 81 26.333 81 79c0 54 -26.333 81 -79 81l-79 1c-108 0 -161.667 56 -161 168c0 101.333 53.333 151.333 160 150l80 -1c53.333 0 79.333 29.333 78 88
c1.33301 47.333 -24.667 71 -78 71h-399z" />
    <glyph glyph-name="c" unicode="c" 
d="M710 1279l321.002 -0.999023c106 -1.33301 159.333 -54 160 -158c-0.666992 -108 -54.334 -161.667 -161.001 -161l-319 -1c-212.667 2 -319 -104.333 -319 -319c0 -212 106.667 -318.667 320 -320h318c106.667 -2 160 -54.667 160 -158
c0 -106.667 -52.667 -160.334 -158 -161.001h-320c-426.667 -0 -640.334 213.333 -641.001 640c0 426 212.333 639 637 639h2z" />
    <glyph glyph-name="d" unicode="d" horiz-adv-x="1421" 
d="M231 1279l480 0.000976562c427.333 -0.666992 641 -214 641 -640c-0.666992 -424.667 -208.667 -637.667 -624 -639h-497c-106.667 -0.666992 -160 52.666 -160 159.999v959c0 106 53.333 159.333 160 160zM392 958.001l0.000976562 -637h321c212 -2 317.333 105 316 321
c1.33301 210 -104.334 315.333 -317.001 316h-320z" />
    <glyph glyph-name="e" unicode="e" 
d="M231 1281l810 -2c99.333 -1.33301 149.333 -53 150 -155c0 -108.667 -54 -164 -162 -166h-637v-637h636c107.333 -0.666992 161 -54.667 161 -162c0 -104.667 -52.667 -157.667 -158 -159h-800c-106 0 -159.333 51.667 -160 155v964c0.666992 106 54 160 160 162z
M469 636c0.666992 106.667 53.333 160.667 158 162h322c106.667 -0.666992 160.667 -54 162 -160c-2 -106.667 -56 -160 -162 -160h-321c-106 -0.666992 -159 52 -159 158z" />
    <glyph glyph-name="f" unicode="f" 
d="M231 1281l810.001 -2.00098c99.333 -1.33301 149.333 -53 150 -155c0 -108.667 -54 -164 -162 -166h-637v-158h640c105.333 -1.33301 158.333 -54.666 159 -159.999c-1.33301 -106.667 -54.333 -160 -159 -160l-640 -1v-320
c-0.666992 -104.667 -54.334 -157.667 -161.001 -159c-106 0 -159.333 51.667 -160 155v964c0.666992 106 54 160 160 162z" />
    <glyph glyph-name="g" unicode="g" horiz-adv-x="1421" 
d="M710 1279l322.001 1.00098c104 -0.666992 156.667 -54.667 158 -162c-1.33301 -105.333 -54 -157.333 -158 -156l-320 -2c-54.667 0 -107.5 -13.667 -158.5 -41s-90.833 -66.666 -119.5 -117.999s-43 -105 -43 -161s14.167 -109.333 42.5 -160s67.833 -90 118.5 -118
s104 -42 160 -42c55.333 0 111.333 13.167 168 39.5s98 67.166 124 122.499h-134c-108 -0.666992 -162 51.666 -162 156.999c0 106.667 53.333 160.667 160 162l321 -1c108 -2.66699 162.333 -56.667 163 -162c0 -110.667 -28.167 -216.834 -84.5 -318.501
s-135.5 -180.667 -237.5 -237s-208.667 -84.5 -320 -84.5c-110.667 0 -216.834 28.167 -318.501 84.5s-180.667 135.333 -237 237s-84.5 207.834 -84.5 318.501c0 111.333 28.5 218.333 85.5 321s136.667 181.667 239 237s207.5 83 315.5 83z" />
    <glyph glyph-name="h" unicode="h" 
d="M1191 1121l-1.00098 -960.999c0 -106.667 -53 -160 -159 -160h-2c-106.667 0 -159.667 52.667 -159 158v323l-235 -1c-109.333 0 -164.666 53 -165.999 159c0 107.333 55.333 160.666 166 159.999l235 3v319c0 107.333 53.667 161 161 161
c106 0 159.333 -53.667 160 -161zM391.999 1120l-0.999023 -960c-0.666992 -105.333 -54.334 -158.666 -161.001 -159.999c-106 0.666992 -159 53.667 -159 159v960c0 106.667 53.333 160.667 160 162c107.333 -0.666992 161 -54.334 161 -161.001z" />
    <glyph glyph-name="i" unicode="i" horiz-adv-x="464" 
d="M230 1278c106.667 -0.666992 161 -53.333 163 -158v-962c-1.33301 -106 -55 -160 -161 -162c-106.667 2.66699 -160 56.667 -160 162v961c-0.666992 106 52 159 158 159z" />
    <glyph glyph-name="j" unicode="j" horiz-adv-x="711" 
d="M633 1119v-723c0 -156.667 -26.5 -261.834 -79.5 -315.501s-159.167 -80.5 -318.5 -80.5c-106 1.33301 -159.333 54.333 -160 159c0 107.333 53.333 161.333 160 162c52 -1.33301 77.667 24.334 77 77.001l-1 726c1.33301 102 55.333 154.333 162 157
c106.667 -2 160 -56 160 -162z" />
    <glyph glyph-name="k" unicode="k" 
d="M1151 1242c26.667 -25.333 39.999 -63.334 39.999 -114.001v-7c0 -56.667 -28.333 -109.667 -85 -159l-293 -321l294 -319c56 -52 84 -102.333 84 -151c0 -3.33301 -0.333008 -7 -1 -11v-13c0 -47.333 -13 -83.333 -39 -108c-28.667 -26 -68 -39 -118 -39h-4
c-54.667 0 -95.667 13.833 -123 41.5s-93.166 104.334 -197.499 230.001l-197 236c-27 31.667 -41.167 75.5 -42.5 131.5c0 52 13.833 95 41.5 129l200.5 243.5c106 128.333 172.5 205.5 199.5 231.5s67.167 39 120.5 39c52 0 92 -13.333 120 -40zM391.999 1120
l-0.999023 -960c-0.666992 -105.333 -54.334 -158.666 -161.001 -159.999c-106 0.666992 -159 53.667 -159 159v960c0 106.667 53.333 160.667 160 162c107.333 -0.666992 161 -54.334 161 -161.001z" />
    <glyph glyph-name="l" unicode="l" horiz-adv-x="1241" 
d="M231 1281c107.333 -2.66699 161.333 -55 162 -157l-1 -803h636c107.333 -0.666992 161 -54.667 161 -162c0 -104.667 -52.667 -157.667 -158 -159h-800c-106 0 -159.333 51.667 -160 155v964c0.666992 106 54 160 160 162z" />
    <glyph glyph-name="m" unicode="m" horiz-adv-x="1425" 
d="M231 1279c54 -1.33301 93.8301 -14.999 119.497 -40.999l362.5 -362l360 361.5c26.667 27.667 66.334 41.5 119.001 41.5c106 -0.666992 159.333 -53.667 160 -159l1 -960c0 -106.667 -54 -160.667 -162 -162c-105.333 0.666992 -159 54.667 -161 162v565l-200.5 -205.5
c-26.333 -27 -65.833 -40.5 -118.5 -40.5c-51.333 0 -90.666 13.833 -117.999 41.5l-201 201.5v-562c-0.666992 -106 -54 -159.333 -160 -160c-107.333 -0.666992 -160.666 52.666 -159.999 159.999v960c0 106 53 159 159 159z" />
    <glyph glyph-name="n" unicode="n" 
d="M254 1278c58 -4.66699 104.335 -26.668 139.002 -66.001l479 -611v537c2 91.333 47.333 138 136 140c120 -2 180.667 -50 182 -144l1 -995c-0.666992 -91.333 -61.667 -137.666 -183 -138.999c-54.667 0.666992 -99.334 22.667 -134.001 66l-481 609v-536
c-0.666992 -92 -47 -138.333 -139 -139c-120.667 0 -181.334 47 -182.001 141v998c0 92 60.667 138.333 182 139z" />
    <glyph glyph-name="o" unicode="o" horiz-adv-x="1425" 
d="M710 1279c108 0 213.001 -27.667 315.001 -83s182 -134.333 240 -237s87 -209.667 87 -321c0 -110.667 -28.167 -216.834 -84.5 -318.501s-135.5 -180.667 -237.5 -237s-208.667 -84.5 -320 -84.5c-110.667 0 -216.834 28.167 -318.501 84.5s-180.667 135.333 -237 237
s-84.5 207.834 -84.5 318.501c0 111.333 28.5 218.333 85.5 321s136.667 181.667 239 237s207.5 83 315.5 83zM553.501 919c-51 -27.333 -90.834 -66.666 -119.501 -117.999s-43 -105 -43 -161s14.167 -109.333 42.5 -160s67.833 -90 118.5 -118s104 -42 160 -42
c55.333 0 108.5 14 159.5 42s90.5 67.333 118.5 118s42 104 42 160s-14.333 109.667 -43 161s-68.667 90.666 -120 117.999s-103.666 41 -156.999 41c-54.667 0 -107.5 -13.667 -158.5 -41z" />
    <glyph glyph-name="p" unicode="p" 
d="M231 1279l561.999 -0.00195312c102.667 0 194.667 -39.333 276 -118c80.667 -78.667 121 -171 121 -277v-3c0 -110.667 -39.833 -205.167 -119.5 -283.5s-174.167 -117.5 -283.5 -117.5l-158 -2c-105.333 0 -158.333 54 -159 162c0 108 54 161.667 162 161l113 1
c84.667 -1.33301 126.334 24.334 125.001 77.001c0 52.667 -41.667 79 -125 79h-353v-798c0.666992 -106.667 -53 -160 -161 -160c-106.667 0 -160 52.667 -160 158v963c0.666992 104.667 54 157.334 160 158.001z" />
    <glyph glyph-name="q" unicode="q" horiz-adv-x="1425" 
d="M710 1279c108 0 213.001 -27.6689 315.001 -83.002s182 -134.333 240 -237s87 -209.667 87 -321c0 -110.667 -43 -217 -129 -319c83.333 0.666992 127 -52.666 131 -159.999c0 -107.333 -54 -161 -162 -161h-482c-110.667 0 -216.834 28.167 -318.501 84.5
s-180.667 135.333 -237 237s-84.5 207.834 -84.5 318.501c0 111.333 28.5 218.333 85.5 321s136.667 181.667 239 237s207.5 83 315.5 83zM553.501 918.998c-51 -27.333 -90.834 -66.666 -119.501 -117.999s-43 -105 -43 -161s14.167 -109.333 42.5 -160
s67.833 -90 118.5 -118s104 -42 160 -42c55.333 0 108.5 14 159.5 42s90.5 67.333 118.5 118s42 104 42 160s-14.333 109.667 -43 161s-68.667 90.666 -120 117.999s-103.666 41 -156.999 41c-54.667 0 -107.5 -13.667 -158.5 -41z" />
    <glyph glyph-name="r" unicode="r" 
d="M231 1279l561.998 -0.00292969c104 0 196.333 -40.333 277 -121s120.667 -173 120 -277c0 -110.667 -20.167 -204 -60.5 -280s-100.833 -115.333 -181.5 -118l197 -200c32 -31.333 48 -72.666 48 -123.999c-2 -106 -55.333 -159 -160 -159h-4
c-53.333 0 -105.666 26 -156.999 78l-320 397c-54 57.333 -81.333 112.333 -82 165c0 108 54 161.667 162 161l113 1c84.667 -1.33301 126.334 24.334 125.001 77.001c0 52.667 -41.667 79 -125 79h-353v-798c0.666992 -106.667 -53 -160 -161 -160
c-106.667 0 -160 52.667 -160 158v963c0.666992 104.667 54 157.334 160 158.001z" />
    <glyph glyph-name="s" unicode="s" 
d="M1193 1120c0 -106.667 -51.334 -160.335 -154.001 -161.002l-487 1c-108 -1.33301 -162.333 -28.666 -163 -81.999c1.33301 -50.667 56 -75.667 164 -75h157c322 -1.33301 483.667 -136.666 485 -405.999c0 -262 -161.333 -393.667 -484 -395h-481
c-106 0.666992 -159 53 -159 157c0.666992 106 53.334 158.333 158.001 157l482 3c108 0.666992 162 28 162 82c0 54.667 -54.667 81.667 -164 81h-157c-320.667 0.666992 -481 132.667 -481 396v5c0 264 160.333 396.333 481 397h481c106 -0.666992 159.333 -54 160 -160z
" />
    <glyph glyph-name="t" unicode="t" horiz-adv-x="1237" 
d="M218 1281l810 -2c99.333 -1.33301 149.333 -53 150 -155c0 -108.667 -54 -164 -162 -166h-239l1 -799c-1.33301 -104.667 -55 -157.667 -161 -159c-106.667 0 -160 51.667 -160 155l1 803h-240c-106.667 0 -160 53.667 -160 161c0.666992 106 54 160 160 162z" />
    <glyph glyph-name="u" unicode="u" horiz-adv-x="1266" 
d="M235 1281c106.667 0 160.335 -51.665 161.002 -154.998l-1 -487c1.33301 -213.333 82.333 -320.333 243 -321c160 1.33301 239.667 108.666 239 321.999v481c1.33301 106 55 159.667 161 161c106 -2.66699 159.333 -56.667 160 -162v-481
c-0.666992 -426 -187.334 -639 -560.001 -639c-374.667 -2.66699 -562.334 210.333 -563.001 639v482c0.666992 105.333 54 158.666 160 159.999z" />
    <glyph glyph-name="v" unicode="v" horiz-adv-x="1383" 
d="M1170 1281c26.667 0 52.8359 -7 78.5029 -21s45.667 -33.833 60 -59.5s21.5 -52.167 21.5 -79.5c0 -28 -80.167 -202.333 -240.5 -523s-247.5 -493.667 -261.5 -519s-33.667 -45 -59 -59s-52 -21 -80 -21c-27.333 0 -53.833 7 -79.5 21s-45.5 33.667 -59.5 59
s-100.667 198.333 -260 519s-239 495 -239 523c0 27.333 7.16699 53.833 21.5 79.5s34.166 45.5 59.499 59.5s51.666 21 78.999 21c26.667 0 52.834 -7 78.501 -21s45.667 -33.833 60 -59.5s127.5 -256.834 339.5 -693.501c214 436.667 328.167 667.834 342.5 693.501
s34.166 45.5 59.499 59.5s51.666 21 78.999 21z" />
    <glyph glyph-name="w" unicode="w" horiz-adv-x="1425" 
d="M71 157l0.000976562 960c0 106.667 52 160 156 160h4c106 -0.666992 159.333 -54 160 -160v-562l201 201.5c27.333 27.667 66.666 41.5 117.999 41.5c52.667 0 92.334 -13.5 119.001 -40.5l200 -205.5v565c2 107.333 55.667 161.333 161 162c108 -2 162 -56 162 -162
l-1 -960c-0.666992 -105.333 -54 -158.333 -160 -159c-52.667 0 -92.334 13.667 -119.001 41l-360 361l-362.5 -361c-25.667 -26 -65.5 -39.667 -119.5 -41c-106 0 -159 53 -159 159z" />
    <glyph glyph-name="x" unicode="x" horiz-adv-x="1271" 
d="M232 1282c53.333 0 93.502 -12.998 120.502 -38.998s121.833 -137.333 284.5 -334c165.333 200 261.5 312.833 288.5 338.5s67.167 38.5 120.5 38.5c52 0 92 -13.333 120 -40c26.667 -25.333 40 -63.333 40 -114v-7c0 -56.667 -28.333 -109.667 -85 -159l-272 -321
l273 -318c56 -52.667 84 -103.334 84 -152.001c0 -3.33301 -0.333008 -7 -1 -11v-13c0 -47.333 -13 -83.333 -39 -108c-29.333 -27.333 -70 -40.333 -122 -39c-54.667 -0.666992 -95.834 13.166 -123.501 41.499s-120.834 138.833 -279.501 331.5
c-162 -196 -256.667 -307.833 -284 -335.5s-68.333 -41.5 -123 -41.5h-4c-50 0 -89 13 -117 39c-26.667 24.667 -40 60.667 -40 108v13c-0.666992 4 -1 7.66699 -1 11c0 48.667 28 99 84 151l285 319l-284 321c-56.667 49.333 -85 102.333 -85 159v7
c0 50.667 13.333 88.667 40 114c28 26.667 68 40 120 40z" />
    <glyph glyph-name="y" unicode="y" horiz-adv-x="1249" 
d="M219 1282c53.333 0 93.5 -13 120.5 -39s121.833 -137.333 284.5 -334c165.333 200 261.5 312.833 288.5 338.5s67.167 38.5 120.5 38.5c52 0 92 -13.333 120 -40c26.667 -25.333 40 -62.666 40 -111.999v-9c0 -56.667 -28.333 -109.667 -85 -159l-327 -382l-1 -425
c-2 -104.667 -55.667 -157.667 -161 -159h-7c-100.667 0 -151 54.667 -151 164l-2 422l-315 376c-56.667 49.333 -85 102.333 -85 159v9c0 49.333 13.333 86.666 40 111.999c28 26.667 68 40 120 40z" />
    <glyph glyph-name="z" unicode="z" 
d="M1192 1098c-4.66699 -58 -26.667 -104.334 -66 -139.001l-540 -640h466c91.333 -2 138 -47.333 140 -136c-2 -120 -49.667 -180.333 -143 -181l-838 -2c-92 1.33301 -138.667 62.333 -140 183c1.33301 55.333 23.333 100 66 134l544 642h-470
c-92 0.666992 -138.667 47 -140 139c0 120.667 47.333 181.334 142 182.001h841c91.333 0 137.333 -60.667 138 -182z" />
    <glyph glyph-name="braceleft" unicode="{" horiz-adv-x="684" 
 />
    <glyph glyph-name="bar" unicode="|" horiz-adv-x="532" 
 />
    <glyph glyph-name="braceright" unicode="}" horiz-adv-x="684" 
 />
    <glyph glyph-name="asciitilde" unicode="~" horiz-adv-x="1196" 
 />
    <glyph glyph-name="exclamdown" unicode="&#xa1;" horiz-adv-x="639" 
d="M318 959c106 0 159.334 -53 160.001 -159v-640c0 -106.667 -52.667 -160 -158 -160h-2c-106.667 0 -160 52.667 -160 158v641c1.33301 106.667 54.666 160 159.999 160zM318.001 1438c26.667 0 52.6689 -7 78.002 -21s45.166 -33.667 59.499 -59
s21.5 -51.666 21.5 -78.999s-7 -53.666 -21 -78.999s-33.5 -45 -58.5 -59s-51.5 -21 -79.5 -21s-54.667 7 -80 21s-44.833 33.667 -58.5 59s-20.5 51.666 -20.5 78.999s7 53.666 21 78.999s33.667 45 59 59s51.666 21 78.999 21z" />
    <glyph glyph-name="cent" unicode="&#xa2;" horiz-adv-x="1139" 
 />
    <glyph glyph-name="sterling" unicode="&#xa3;" horiz-adv-x="1139" 
 />
    <glyph glyph-name="yen" unicode="&#xa5;" horiz-adv-x="1139" 
 />
    <glyph glyph-name="brokenbar" unicode="&#xa6;" horiz-adv-x="532" 
 />
    <glyph glyph-name="section" unicode="&#xa7;" horiz-adv-x="1139" 
 />
    <glyph glyph-name="dieresis" unicode="&#xa8;" horiz-adv-x="881" 
d="M818 1607c0 -26.667 -7 -52.668 -21 -78.001s-33.667 -45.166 -59 -59.499s-52 -21.5 -80 -21.5c-27.333 0 -53.666 7 -78.999 21s-45 33.667 -59 59s-21 51.666 -21 78.999c0 28 7 54.667 21 80s33.667 44.833 59 58.5s51.666 20.5 78.999 20.5c28 0 54.667 -7 80 -21
s45 -33.667 59 -59s21 -51.666 21 -78.999zM367 1607c0 -26.667 -6.83301 -52.6699 -20.5 -78.0029s-33.167 -45.166 -58.5 -59.499s-52.333 -21.5 -81 -21.5c-26.667 0 -52.667 7.16699 -78 21.5s-45 34 -59 59s-21 51.167 -21 78.5c0 28 7 54.667 21 80s33.667 45 59 59
s51.333 21 78 21c28.667 0 55.667 -7.16699 81 -21.5s44.833 -34.166 58.5 -59.499s20.5 -51.666 20.5 -78.999z" />
    <glyph glyph-name="copyright" unicode="&#xa9;" horiz-adv-x="1509" 
 />
    <glyph glyph-name="ordfeminine" unicode="&#xaa;" horiz-adv-x="758" 
 />
    <glyph glyph-name="guillemotleft" unicode="&#xab;" horiz-adv-x="1139" 
 />
    <glyph glyph-name="logicalnot" unicode="&#xac;" horiz-adv-x="1196" 
 />
    <glyph glyph-name="registered" unicode="&#xae;" horiz-adv-x="1509" 
 />
    <glyph glyph-name="degree" unicode="&#xb0;" horiz-adv-x="819" 
 />
    <glyph glyph-name="plusminus" unicode="&#xb1;" horiz-adv-x="1124" 
 />
    <glyph glyph-name="twosuperior" unicode="&#xb2;" horiz-adv-x="682" 
 />
    <glyph glyph-name="threesuperior" unicode="&#xb3;" horiz-adv-x="682" 
 />
    <glyph glyph-name="acute" unicode="&#xb4;" horiz-adv-x="620" 
d="M477 1802c45.333 0 68 -13.667 68 -41c0 -18.667 -10 -43 -30 -73l-113 -170c-50 -76 -112.667 -114 -188 -114h-1c-45.333 0 -68 13.667 -68 41c0 18 9.66699 41.667 29 71l114 172c51.333 76 114.333 114 189 114z" />
    <glyph glyph-name="mu1" unicode="&#xb5;" horiz-adv-x="1180" 
 />
    <glyph glyph-name="paragraph" unicode="&#xb6;" horiz-adv-x="1100" 
 />
    <glyph glyph-name="periodcentered" unicode="&#xb7;" horiz-adv-x="569" 
 />
    <glyph glyph-name="periodcentered" unicode="&#x2219;" horiz-adv-x="569" 
 />
    <glyph glyph-name="cedilla" unicode="&#xb8;" horiz-adv-x="682" 
d="M273 -387c-42.667 0 -64.666 19.332 -65.999 57.999c0.666992 37.333 23 56.666 67 57.999h164c22 -0.666992 33 8.66602 33 27.999s-11.333 29.333 -34 30c-44 -1.33301 -82.5 12.334 -115.5 41.001s-49.833 62.334 -50.5 101.001c-0.666992 38 20.666 57 63.999 57h5
c42 0 63 -18.667 63 -56c1.33301 -20 12.333 -30 33 -30c112 0.666992 168 -46.666 168 -141.999c0 -96.667 -77 -145 -231 -145h-100z" />
    <glyph glyph-name="onesuperior" unicode="&#xb9;" horiz-adv-x="682" 
 />
    <glyph glyph-name="ordmasculine" unicode="&#xba;" horiz-adv-x="748" 
 />
    <glyph glyph-name="guillemotright" unicode="&#xbb;" horiz-adv-x="1139" 
 />
    <glyph glyph-name="onequarter" unicode="&#xbc;" horiz-adv-x="1708" 
 />
    <glyph glyph-name="onehalf" unicode="&#xbd;" horiz-adv-x="1708" 
 />
    <glyph glyph-name="threequarters" unicode="&#xbe;" horiz-adv-x="1708" 
 />
    <glyph glyph-name="questiondown" unicode="&#xbf;" horiz-adv-x="1236" 
d="M716 1c-371.333 0 -557.334 133.998 -558.001 401.998v1c0 264.667 135 396.334 405 395.001c50.667 0 77.334 28 80.001 84c0 106.667 52.667 159 158 157c108 2 161.333 -51.667 160 -161c-0.666992 -106.667 -41 -199.834 -121 -279.501s-173.333 -118.5 -280 -116.5
c-54 -1.33301 -81 -28.666 -81 -81.999s26.333 -79.666 79 -78.999h397c105.333 -2.66699 159 -56.667 161 -162c-2.66699 -106 -56 -159 -160 -159h-240zM796.999 1123c-26.667 0 -52.668 6.83301 -78.001 20.5s-45.166 33.167 -59.499 58.5s-21.5 52 -21.5 80
c0 27.333 7 53.666 21 78.999s33.667 44.833 59 58.5s51.666 20.5 78.999 20.5c28 0 54.667 -6.83301 80 -20.5s44.833 -33.167 58.5 -58.5s20.5 -51.666 20.5 -78.999c0 -28 -7 -54.667 -21 -80s-33.667 -44.833 -59 -58.5s-51.666 -20.5 -78.999 -20.5z" />
    <glyph glyph-name="Agrave" unicode="&#xc0;" horiz-adv-x="1425" 
d="M235 -1c-27.333 0 -53.667 6.83301 -79 20.5s-45.166 33.334 -59.499 59.001s-21.5 52.5 -21.5 80.5s79.667 202.167 239 522.5s246 493.166 260 518.499s33.833 45.166 59.5 59.499s52.167 21.5 79.5 21.5c28 0 54.667 -7.16699 80 -21.5s45 -34.166 59 -59.499
s101.167 -198.166 261.5 -518.499s240.5 -494.5 240.5 -522.5s-7.16699 -54.833 -21.5 -80.5s-34.333 -45.334 -60 -59.001s-51.834 -20.5 -78.501 -20.5h-959zM932.999 321l-220 451l-220 -451h440zM658.999 1688l114 -172c19.333 -29.333 29 -53 29 -71
c0 -27.333 -22.667 -41 -68 -41h-1c-75.333 0 -138 38 -188 114l-113 170c-20 30 -30 54.333 -30 73c0 27.333 22.667 41 68 41c74.667 0 137.667 -38 189 -114z" />
    <glyph glyph-name="Aacute" unicode="&#xc1;" horiz-adv-x="1425" 
d="M232 -1c-27.333 0 -53.667 6.83301 -79 20.5s-45.166 33.334 -59.499 59.001s-21.5 52.5 -21.5 80.5s79.667 202.167 239 522.5s246 493.166 260 518.499s33.833 45.166 59.5 59.499s52.167 21.5 79.5 21.5c28 0 54.667 -7.16699 80 -21.5s45 -34.166 59 -59.499
s101.167 -198.166 261.5 -518.499s240.5 -494.5 240.5 -522.5s-7.16699 -54.833 -21.5 -80.5s-34.333 -45.334 -60 -59.001s-51.834 -20.5 -78.501 -20.5h-959zM929.999 321l-220 451l-220 -451h440zM974.999 1802c45.333 0 68 -13.667 68 -41c0 -18.667 -10 -43 -30 -73
l-113 -170c-50 -76 -112.667 -114 -188 -114h-1c-45.333 0 -68 13.667 -68 41c0 18 9.66699 41.667 29 71l114 172c51.333 76 114.333 114 189 114z" />
    <glyph glyph-name="Acircumflex" unicode="&#xc2;" horiz-adv-x="1425" 
d="M232 -1c-27.333 0 -53.667 6.83301 -79 20.5s-45.166 33.334 -59.499 59.001s-21.5 52.5 -21.5 80.5s79.667 202.167 239 522.5s246 493.166 260 518.499s33.833 45.166 59.5 59.499s52.167 21.5 79.5 21.5c28 0 54.667 -7.16699 80 -21.5s45 -34.166 59 -59.499
s101.167 -198.166 261.5 -518.499s240.5 -494.5 240.5 -522.5s-7.16699 -54.833 -21.5 -80.5s-34.333 -45.334 -60 -59.001s-51.834 -20.5 -78.501 -20.5h-959zM929.999 321l-220 451l-220 -451h440zM813.499 1407c-11 6 -19.5 14.5 -25.5 25.5s-32 61.5 -78 151.5
c-43.333 -88.667 -68 -138.5 -74 -149.5s-14.667 -19.5 -26 -25.5s-22.666 -9 -33.999 -9s-22.5 3 -33.5 9s-19.667 14.5 -26 25.5s-9.5 22.5 -9.5 34.5s22.333 62.167 67 150.5s70 138 76 149s14.667 19.5 26 25.5s22.666 9 33.999 9c12 0 23.5 -3 34.5 -9
s19.667 -14.5 26 -25.5s32.333 -61 78 -150s68.5 -139.5 68.5 -151.5s-3.16699 -23.5 -9.5 -34.5s-15 -19.5 -26 -25.5s-22.167 -9 -33.5 -9c-12 0 -23.5 3 -34.5 9z" />
    <glyph glyph-name="Atilde" unicode="&#xc3;" horiz-adv-x="1425" 
d="M232 -1c-27.333 0 -53.667 6.83301 -79 20.5s-45.166 33.334 -59.499 59.001s-21.5 52.5 -21.5 80.5s79.667 202.167 239 522.5s246 493.166 260 518.499s33.833 45.166 59.5 59.499s52.167 21.5 79.5 21.5c28 0 54.667 -7.16699 80 -21.5s45 -34.166 59 -59.499
s101.167 -198.166 261.5 -518.499s240.5 -494.5 240.5 -522.5s-7.16699 -54.833 -21.5 -80.5s-34.333 -45.334 -60 -59.001s-51.834 -20.5 -78.501 -20.5h-959zM929.999 321l-220 451l-220 -451h440zM841.999 1725c16 11.333 30.998 17 44.998 17
c18.667 0 36 -10.667 52 -32l1 -2c38.667 -52.667 58 -100.667 58 -144c0 -48.667 -24.667 -91 -74 -127l-2 -1c-34.667 -25.333 -68.667 -38 -102 -38c-55.333 0 -108.666 35.333 -159.999 106l-41 55c-27.333 38.667 -50.666 51 -69.999 37
c-18.667 -14 -14.334 -40 12.999 -78l-1 -2c27.333 -36 22.333 -67.667 -15 -95c-14.667 -11.333 -29 -17 -43 -17c-18.667 0 -36 10.667 -52 32c-38.667 54 -58 102.667 -58 146c0 48.667 24.333 90.667 73 126c36 26 71 39 105 39c56 0 109.667 -35.333 161 -106l40 -55
c28 -38 51 -50.667 69 -38c18.667 14 14.334 40 -12.999 78l-3 3c-26 36.667 -20.333 68.667 17 96z" />
    <glyph glyph-name="Adieresis" unicode="&#xc4;" horiz-adv-x="1425" 
d="M232 -1c-27.333 0 -53.667 6.83301 -79 20.5s-45.166 33.334 -59.499 59.001s-21.5 52.5 -21.5 80.5s79.667 202.167 239 522.5s246 493.166 260 518.499s33.833 45.166 59.5 59.499s52.167 21.5 79.5 21.5c28 0 54.667 -7.16699 80 -21.5s45 -34.166 59 -59.499
s101.167 -198.166 261.5 -518.499s240.5 -494.5 240.5 -522.5s-7.16699 -54.833 -21.5 -80.5s-34.333 -45.334 -60 -59.001s-51.834 -20.5 -78.501 -20.5h-959zM929.999 321l-220 451l-220 -451h440zM1091 1607c0 -26.667 -7 -52.6699 -21 -78.0029
s-33.667 -45.166 -59 -59.499s-52 -21.5 -80 -21.5c-27.333 0 -53.666 7.16699 -78.999 21.5s-45 34 -59 59s-21 51.167 -21 78.5c0 28 7 54.667 21 80s33.667 45 59 59s51.666 21 78.999 21c28 0 54.667 -7.16699 80 -21.5s45 -34.166 59 -59.499s21 -51.666 21 -78.999z
M639.999 1607c0 -26.667 -6.83301 -52.6699 -20.5 -78.0029s-33.167 -45.166 -58.5 -59.499s-52.333 -21.5 -81 -21.5c-27.333 0 -53.666 7.16699 -78.999 21.5s-44.833 34 -58.5 59s-20.5 51.167 -20.5 78.5c0 28 6.83301 54.667 20.5 80s33.167 45 58.5 59
s51.666 21 78.999 21c28.667 0 55.667 -7.16699 81 -21.5s44.833 -34.166 58.5 -59.499s20.5 -51.666 20.5 -78.999z" />
    <glyph glyph-name="Aring" unicode="&#xc5;" horiz-adv-x="1366" 
 />
    <glyph glyph-name="AE" unicode="&#xc6;" horiz-adv-x="2048" 
 />
    <glyph glyph-name="Ccedilla" unicode="&#xc7;" 
d="M710 1279l321.002 -0.999023c106 -1.33301 159.333 -54 160 -158c-0.666992 -108 -54.334 -161.667 -161.001 -161l-319 -1c-212.667 2 -319 -104.333 -319 -319c0 -212 106.667 -318.667 320 -320h318c106.667 -2 160 -54.667 160 -158
c0 -106.667 -52.667 -160.334 -158 -161.001h-320c-426.667 -0 -640.334 213.333 -641.001 640c0 426 212.333 639 637 639h2zM570.002 -386.999c-43.333 0 -65.332 19 -65.999 57c0.666992 38 22.667 57.333 66 58h165c22 0 33 9.5 33 28.5s-11.333 28.833 -34 29.5
c-44 -0.666992 -82.667 13.333 -116 42s-50 62 -50 100c-0.666992 38.667 20.666 58 63.999 58h5c42 0 63 -18.667 63 -56c0.666992 -20 11.667 -30 33 -30c112 0 168 -47.333 168 -142c-0.666992 -96.667 -78 -145 -232 -145h-99z" />
    <glyph glyph-name="Egrave" unicode="&#xc8;" 
d="M231 1281l810 -2c99.333 -1.33301 149.333 -53 150 -155c0 -108.667 -54 -164 -162 -166h-637v-637h636c107.333 -0.666992 161 -54.667 161 -162c0 -104.667 -52.667 -157.667 -158 -159h-800c-106 0 -159.333 51.667 -160 155v964c0.666992 106 54 160 160 162z
M469 636c0.666992 106.667 53.333 160.667 158 162h322c106.667 -0.666992 160.667 -54 162 -160c-2 -106.667 -56 -160 -162 -160h-321c-106 -0.666992 -159 52 -159 158zM601.999 1688l114 -172c19.333 -29.333 29 -53 29 -71c0 -27.333 -22.667 -41 -68 -41h-1
c-75.333 0 -138 38 -188 114l-113 170c-20 30 -30 54.333 -30 73c0 27.333 22.667 41 68 41c74.667 0 137.667 -38 189 -114z" />
    <glyph glyph-name="Eacute" unicode="&#xc9;" 
d="M231 1281l810 -2c99.333 -1.33301 149.333 -53 150 -155c0 -108.667 -54 -164 -162 -166h-637v-637h636c107.333 -0.666992 161 -54.667 161 -162c0 -104.667 -52.667 -157.667 -158 -159h-800c-106 0 -159.333 51.667 -160 155v964c0.666992 106 54 160 160 162z
M469 636c0.666992 106.667 53.333 160.667 158 162h322c106.667 -0.666992 160.667 -54 162 -160c-2 -106.667 -56 -160 -162 -160h-321c-106 -0.666992 -159 52 -159 158zM853.999 1802c45.333 0 68 -13.667 68 -41c0 -18.667 -10 -43 -30 -73l-113 -170
c-50 -76 -112.667 -114 -188 -114h-1c-45.333 0 -68 13.667 -68 41c0 18 9.66699 41.667 29 71l114 172c51.333 76 114.333 114 189 114z" />
    <glyph glyph-name="Ecircumflex" unicode="&#xca;" 
d="M231 1281l810 -2c99.333 -1.33301 149.333 -53 150 -155c0 -108.667 -54 -164 -162 -166h-637v-637h636c107.333 -0.666992 161 -54.667 161 -162c0 -104.667 -52.667 -157.667 -158 -159h-800c-106 0 -159.333 51.667 -160 155v964c0.666992 106 54 160 160 162z
M469 636c0.666992 106.667 53.333 160.667 158 162h322c106.667 -0.666992 160.667 -54 162 -160c-2 -106.667 -56 -160 -162 -160h-321c-106 -0.666992 -159 52 -159 158zM750.499 1407c-11 6 -19.6689 14.5 -26.002 25.5s-32.166 61.5 -77.499 151.5
c-43.333 -88.667 -68.166 -138.5 -74.499 -149.5s-15 -19.5 -26 -25.5s-22.167 -9 -33.5 -9c-12 0 -23.333 3 -34 9s-19.167 14.5 -25.5 25.5s-9.5 22.5 -9.5 34.5s22.333 62.167 67 150.5s70 138 76 149s14.5 19.5 25.5 25.5s22.5 9 34.5 9s23.5 -3 34.5 -9
s19.5 -14.5 25.5 -25.5s31.833 -61 77.5 -150s68.5 -139.5 68.5 -151.5s-3 -23.5 -9 -34.5s-14.5 -19.5 -25.5 -25.5s-22.5 -9 -34.5 -9c-11.333 0 -22.5 3 -33.5 9z" />
    <glyph glyph-name="Edieresis" unicode="&#xcb;" 
d="M231 1281l810 -2c99.333 -1.33301 149.333 -53 150 -155c0 -108.667 -54 -164 -162 -166h-637v-637h636c107.333 -0.666992 161 -54.667 161 -162c0 -104.667 -52.667 -157.667 -158 -159h-800c-106 0 -159.333 51.667 -160 155v964c0.666992 106 54 160 160 162z
M469 636c0.666992 106.667 53.333 160.667 158 162h322c106.667 -0.666992 160.667 -54 162 -160c-2 -106.667 -56 -160 -162 -160h-321c-106 -0.666992 -159 52 -159 158zM1010 1607c0 -26.667 -6.83301 -52.668 -20.5 -78.001s-33.167 -45.166 -58.5 -59.499
s-52.333 -21.5 -81 -21.5c-27.333 0 -53.666 7 -78.999 21s-44.833 33.5 -58.5 58.5s-20.5 51.5 -20.5 79.5c0 27.333 6.83301 53.666 20.5 78.999s33.167 45 58.5 59s51.666 21 78.999 21c28.667 0 55.667 -7 81 -21s44.833 -33.667 58.5 -59s20.5 -51.666 20.5 -78.999z
M559.999 1607c0 -26.667 -7 -52.6689 -21 -78.002s-33.667 -45.166 -59 -59.499s-52 -21.5 -80 -21.5c-27.333 0 -53.666 7 -78.999 21s-44.833 33.5 -58.5 58.5s-20.5 51.5 -20.5 79.5s6.83301 54.667 20.5 80s33.167 44.833 58.5 58.5s51.666 20.5 78.999 20.5
c28 0 54.667 -7 80 -21s45 -33.667 59 -59s21 -51.666 21 -78.999z" />
    <glyph glyph-name="Igrave" unicode="&#xcc;" horiz-adv-x="464" 
d="M230 1278c106.667 -0.666992 160.667 -53.333 162 -158v-962c-1.33301 -106 -55 -160 -161 -162c-106.667 2.66699 -160 56.667 -160 162v961c-0.666992 106 52.333 159 159 159zM172 1688l114 -172c19.333 -29.333 29 -53 29 -71c0 -27.333 -22.667 -41 -68 -41h-1
c-75.333 0 -138 38 -188 114l-113 170c-20 30 -30 54.333 -30 73c0 27.333 22.667 41 68 41c74.667 0 137.667 -38 189 -114z" />
    <glyph glyph-name="Iacute" unicode="&#xcd;" horiz-adv-x="464" 
d="M230 1278c106.667 -0.666992 161 -53.333 163 -158v-962c-1.33301 -106 -55 -160 -161 -162c-106.667 2.66699 -160 56.667 -160 162v961c-0.666992 106 52 159 158 159zM485 1802c45.333 0 68 -13.667 68 -41c0 -18.667 -10 -43 -30 -73l-113 -170
c-50 -76 -112.667 -114 -188 -114h-1c-45.333 0 -68 13.667 -68 41c0 18 9.66699 41.667 29 71l114 172c51.333 76 114.333 114 189 114z" />
    <glyph glyph-name="Icircumflex" unicode="&#xce;" horiz-adv-x="464" 
d="M230 1278c106.667 -0.666992 161 -53.333 163 -158v-962c-1.33301 -106 -55 -160 -161 -162c-106.667 2.66699 -160 56.667 -160 162v961c-0.666992 106 52 159 158 159zM310 1407c-8.66699 6 -15.5 14.5 -20.5 25.5s-25.5 61.5 -61.5 151.5
c-35.333 -88.667 -55.333 -138.5 -60 -149.5s-11.5 -19.5 -20.5 -25.5s-18.167 -9 -27.5 -9s-18.333 3 -27 9s-15.5 14.5 -20.5 25.5s-7.5 22.5 -7.5 34.5s17.833 62.167 53.5 150.5s56 137.833 61 148.5s11.833 19.167 20.5 25.5s18 9.5 28 9.5
c9.33301 0 18.333 -3.16699 27 -9.5s15.5 -14.833 20.5 -25.5s25.833 -60.5 62.5 -149.5s55 -139.5 55 -151.5s-2.5 -23.5 -7.5 -34.5s-12 -19.5 -21 -25.5s-18.167 -9 -27.5 -9s-18.333 3 -27 9z" />
    <glyph glyph-name="Idieresis" unicode="&#xcf;" horiz-adv-x="464" 
d="M230 1278c106.667 -0.666992 161 -53.333 163 -158v-962c-1.33301 -106 -55 -160 -161 -162c-106.667 2.66699 -160 56.667 -160 162v961c-0.666992 106 52 159 158 159zM610 1608c0 -26.667 -7 -52.667 -21 -78s-33.667 -45.333 -59 -60s-52 -22 -80 -22
c-27.333 0 -53.666 7.16699 -78.999 21.5s-45 34 -59 59s-21 51.5 -21 79.5c0 27.333 7 53.666 21 78.999s33.667 45 59 59s51.666 21 78.999 21c28 0 54.667 -7.16699 80 -21.5s45 -34.166 59 -59.499s21 -51.333 21 -78zM159 1608
c0 -26.667 -6.83301 -52.668 -20.5 -78.001s-33.167 -45.166 -58.5 -59.499s-52 -21.5 -80 -21.5c-27.333 0 -53.666 7 -78.999 21s-45 33.5 -59 58.5s-21 51.5 -21 79.5c0 27.333 7 53.666 21 78.999s33.667 45 59 59s51.666 21 78.999 21c28 0 54.667 -7 80 -21
s44.833 -33.667 58.5 -59s20.5 -51.666 20.5 -78.999z" />
    <glyph glyph-name="Eth" unicode="&#xd0;" horiz-adv-x="1479" 
 />
    <glyph glyph-name="Ntilde" unicode="&#xd1;" 
d="M254 1278c58 -4.66699 104.335 -26.668 139.002 -66.001l479 -611v537c2 91.333 47.333 138 136 140c120 -2 180.667 -50 182 -144l1 -995c-0.666992 -91.333 -61.667 -137.666 -183 -138.999c-54.667 0.666992 -99.334 22.667 -134.001 66l-481 609v-536
c-0.666992 -92 -47 -138.333 -139 -139c-120.667 0 -181.334 47 -182.001 141v998c0 92 60.667 138.333 182 139zM763.002 1725c16 11.333 30.998 17 44.998 17c18.667 0 36 -10.667 52 -32l1 -2c38.667 -52.667 58 -100.667 58 -144c0 -48.667 -24.667 -91 -74 -127l-2 -1
c-34.667 -25.333 -68.667 -38 -102 -38c-55.333 0 -108.666 35.333 -159.999 106l-41 55c-27.333 38.667 -50.666 51 -69.999 37c-18.667 -14 -14.334 -40 12.999 -78l-1 -2c27.333 -36 22.333 -67.667 -15 -95c-14.667 -11.333 -29 -17 -43 -17
c-18.667 0 -36 10.667 -52 32c-38.667 54 -58 102.667 -58 146c0 48.667 24.333 90.667 73 126c36 26 71 39 105 39c56 0 109.667 -35.333 161 -106l40 -55c28 -38 51 -50.667 69 -38c18.667 14 14.334 40 -12.999 78l-3 3c-26 36.667 -20.333 68.667 17 96z" />
    <glyph glyph-name="Ograve" unicode="&#xd2;" horiz-adv-x="1425" 
d="M710 1279c108 0 213.001 -27.667 315.001 -83s182 -134.333 240 -237s87 -209.667 87 -321c0 -110.667 -28.167 -216.834 -84.5 -318.501s-135.5 -180.667 -237.5 -237s-208.667 -84.5 -320 -84.5c-110.667 0 -216.834 28.167 -318.501 84.5s-180.667 135.333 -237 237
s-84.5 207.834 -84.5 318.501c0 111.333 28.5 218.333 85.5 321s136.667 181.667 239 237s207.5 83 315.5 83zM553.501 919c-51 -27.333 -90.834 -66.666 -119.501 -117.999s-43 -105 -43 -161s14.167 -109.333 42.5 -160s67.833 -90 118.5 -118s104 -42 160 -42
c55.333 0 108.5 14 159.5 42s90.5 67.333 118.5 118s42 104 42 160s-14.333 109.667 -43 161s-68.667 90.666 -120 117.999s-103.666 41 -156.999 41c-54.667 0 -107.5 -13.667 -158.5 -41zM668 1688l114 -172c19.333 -29.333 29 -53 29 -71c0 -27.333 -22.667 -41 -68 -41
h-1c-75.333 0 -138 38 -188 114l-113 170c-20 30 -30 54.333 -30 73c0 27.333 22.667 41 68 41c74.667 0 137.667 -38 189 -114z" />
    <glyph glyph-name="Oacute" unicode="&#xd3;" horiz-adv-x="1425" 
d="M710 1279c108 0 213.001 -27.667 315.001 -83s182 -134.333 240 -237s87 -209.667 87 -321c0 -110.667 -28.167 -216.834 -84.5 -318.501s-135.5 -180.667 -237.5 -237s-208.667 -84.5 -320 -84.5c-110.667 0 -216.834 28.167 -318.501 84.5s-180.667 135.333 -237 237
s-84.5 207.834 -84.5 318.501c0 111.333 28.5 218.333 85.5 321s136.667 181.667 239 237s207.5 83 315.5 83zM553.501 919c-51 -27.333 -90.834 -66.666 -119.501 -117.999s-43 -105 -43 -161s14.167 -109.333 42.5 -160s67.833 -90 118.5 -118s104 -42 160 -42
c55.333 0 108.5 14 159.5 42s90.5 67.333 118.5 118s42 104 42 160s-14.333 109.667 -43 161s-68.667 90.666 -120 117.999s-103.666 41 -156.999 41c-54.667 0 -107.5 -13.667 -158.5 -41zM968 1802c45.333 0 68 -13.667 68 -41c0 -18.667 -10 -43 -30 -73l-113 -170
c-50 -76 -112.667 -114 -188 -114h-1c-45.333 0 -68 13.667 -68 41c0 18 9.66699 41.667 29 71l114 172c51.333 76 114.333 114 189 114z" />
    <glyph glyph-name="Ocircumflex" unicode="&#xd4;" horiz-adv-x="1425" 
d="M710 1279c108 0 213.001 -27.667 315.001 -83s182 -134.333 240 -237s87 -209.667 87 -321c0 -110.667 -28.167 -216.834 -84.5 -318.501s-135.5 -180.667 -237.5 -237s-208.667 -84.5 -320 -84.5c-110.667 0 -216.834 28.167 -318.501 84.5s-180.667 135.333 -237 237
s-84.5 207.834 -84.5 318.501c0 111.333 28.5 218.333 85.5 321s136.667 181.667 239 237s207.5 83 315.5 83zM553.501 919c-51 -27.333 -90.834 -66.666 -119.501 -117.999s-43 -105 -43 -161s14.167 -109.333 42.5 -160s67.833 -90 118.5 -118s104 -42 160 -42
c55.333 0 108.5 14 159.5 42s90.5 67.333 118.5 118s42 104 42 160s-14.333 109.667 -43 161s-68.667 90.666 -120 117.999s-103.666 41 -156.999 41c-54.667 0 -107.5 -13.667 -158.5 -41zM821.5 1407c-11 6 -19.5 14.499 -25.5 25.499l-78 150.5
c-43.333 -88.667 -68 -138.5 -74 -149.5s-14.667 -19.5 -26 -25.5s-22.666 -9 -33.999 -9s-22.5 3 -33.5 9s-19.667 14.5 -26 25.5s-9.5 22.5 -9.5 34.5s22.333 62.333 67 151s70 138.334 76 149.001s14.667 19 26 25s22.666 9 33.999 9c12 0 23.5 -3 34.5 -9
s19.667 -14.333 26 -25s32.333 -60.5 78 -149.5s68.5 -139.5 68.5 -151.5s-3.16699 -23.5 -9.5 -34.5s-15 -19.5 -26 -25.5s-22.167 -9 -33.5 -9c-12 0 -23.5 3 -34.5 9z" />
    <glyph glyph-name="Otilde" unicode="&#xd5;" horiz-adv-x="1425" 
d="M710 1279c108 0 213.001 -27.667 315.001 -83s182 -134.333 240 -237s87 -209.667 87 -321c0 -110.667 -28.167 -216.834 -84.5 -318.501s-135.5 -180.667 -237.5 -237s-208.667 -84.5 -320 -84.5c-110.667 0 -216.834 28.167 -318.501 84.5s-180.667 135.333 -237 237
s-84.5 207.834 -84.5 318.501c0 111.333 28.5 218.333 85.5 321s136.667 181.667 239 237s207.5 83 315.5 83zM553.501 919c-51 -27.333 -90.834 -66.666 -119.501 -117.999s-43 -105 -43 -161s14.167 -109.333 42.5 -160s67.833 -90 118.5 -118s104 -42 160 -42
c55.333 0 108.5 14 159.5 42s90.5 67.333 118.5 118s42 104 42 160s-14.333 109.667 -43 161s-68.667 90.666 -120 117.999s-103.666 41 -156.999 41c-54.667 0 -107.5 -13.667 -158.5 -41zM849 1725c16 11.333 30.998 17 44.998 17c18.667 0 36 -10.667 52 -32l1 -2
c38.667 -52.667 58 -100.667 58 -144c0 -48.667 -24.667 -91 -74 -127l-2 -1c-34.667 -25.333 -68.667 -38 -102 -38c-55.333 0 -108.666 35.333 -159.999 106l-41 55c-27.333 38.667 -50.666 51 -69.999 37c-18.667 -14 -14.334 -40 12.999 -78l-1 -2
c27.333 -36 22.333 -67.667 -15 -95c-14.667 -11.333 -29 -17 -43 -17c-18.667 0 -36 10.667 -52 32c-38.667 54 -58 102.667 -58 146c0 48.667 24.333 90.667 73 126c36 26 71 39 105 39c56 0 109.667 -35.333 161 -106l40 -55c28 -38 51 -50.667 69 -38
c18.667 14 14.334 40 -12.999 78l-3 3c-26 36.667 -20.333 68.667 17 96z" />
    <glyph glyph-name="Odieresis" unicode="&#xd6;" horiz-adv-x="1425" 
d="M710 1279c108 0 213.001 -27.667 315.001 -83s182 -134.333 240 -237s87 -209.667 87 -321c0 -110.667 -28.167 -216.834 -84.5 -318.501s-135.5 -180.667 -237.5 -237s-208.667 -84.5 -320 -84.5c-110.667 0 -216.834 28.167 -318.501 84.5s-180.667 135.333 -237 237
s-84.5 207.834 -84.5 318.501c0 111.333 28.5 218.333 85.5 321s136.667 181.667 239 237s207.5 83 315.5 83zM553.501 919c-51 -27.333 -90.834 -66.666 -119.501 -117.999s-43 -105 -43 -161s14.167 -109.333 42.5 -160s67.833 -90 118.5 -118s104 -42 160 -42
c55.333 0 108.5 14 159.5 42s90.5 67.333 118.5 118s42 104 42 160s-14.333 109.667 -43 161s-68.667 90.666 -120 117.999s-103.666 41 -156.999 41c-54.667 0 -107.5 -13.667 -158.5 -41zM1098 1607c0 -26.667 -7 -52.668 -21 -78.001s-33.667 -45.166 -59 -59.499
s-52 -21.5 -80 -21.5c-27.333 0 -53.666 7 -78.999 21s-44.833 33.667 -58.5 59s-20.5 51.666 -20.5 78.999c0 28 6.83301 54.667 20.5 80s33.167 44.833 58.5 58.5s51.666 20.5 78.999 20.5c28 0 54.667 -7 80 -21s45 -33.667 59 -59s21 -51.666 21 -78.999zM648 1607
c0 -26.667 -7 -52.668 -21 -78.001s-33.667 -45.166 -59 -59.499s-52 -21.5 -80 -21.5c-27.333 0 -53.666 7 -78.999 21s-45 33.667 -59 59s-21 51.666 -21 78.999c0 28 7 54.667 21 80s33.667 44.833 59 58.5s51.666 20.5 78.999 20.5c28 0 54.667 -7 80 -21
s45 -33.667 59 -59s21 -51.666 21 -78.999z" />
    <glyph glyph-name="multiply" unicode="&#xd7;" horiz-adv-x="1196" 
 />
    <glyph glyph-name="Oslash" unicode="&#xd8;" horiz-adv-x="1593" 
 />
    <glyph glyph-name="Ugrave" unicode="&#xd9;" horiz-adv-x="1266" 
d="M235 1281c106.667 0 160.335 -51.665 161.002 -154.998l-1 -487c1.33301 -213.333 82.333 -320.333 243 -321c160 1.33301 239.667 108.666 239 321.999v481c1.33301 106 55 159.667 161 161c106 -2.66699 159.333 -56.667 160 -162v-481
c-0.666992 -426 -187.334 -639 -560.001 -639c-374.667 -2.66699 -562.334 210.333 -563.001 639v482c0.666992 105.333 54 158.666 160 159.999zM619.001 1688l114 -172c19.333 -29.333 29 -53 29 -71c0 -27.333 -22.667 -41 -68 -41h-1c-75.333 0 -138 38 -188 114
l-113 170c-20 30 -30 54.333 -30 73c0 27.333 22.667 41 68 41c74.667 0 137.667 -38 189 -114z" />
    <glyph glyph-name="Uacute" unicode="&#xda;" horiz-adv-x="1266" 
d="M235 1281c106.667 0 160.335 -51.665 161.002 -154.998l-1 -487c1.33301 -213.333 82.333 -320.333 243 -321c160 1.33301 239.667 108.666 239 321.999v481c1.33301 106 55 159.667 161 161c106 -2.66699 159.333 -56.667 160 -162v-481
c-0.666992 -426 -187.334 -639 -560.001 -639c-374.667 -2.66699 -562.334 210.333 -563.001 639v482c0.666992 105.333 54 158.666 160 159.999zM852.001 1802c45.333 0 68 -13.667 68 -41c0 -18.667 -10 -43 -30 -73l-113 -170c-50 -76 -112.667 -114 -188 -114h-1
c-45.333 0 -68 13.667 -68 41c0 18 9.66699 41.667 29 71l114 172c51.333 76 114.333 114 189 114z" />
    <glyph glyph-name="Ucircumflex" unicode="&#xdb;" horiz-adv-x="1266" 
d="M235 1281c106.667 0 160.335 -51.665 161.002 -154.998l-1 -487c1.33301 -213.333 82.333 -320.333 243 -321c160 1.33301 239.667 108.666 239 321.999v481c1.33301 106 55 159.667 161 161c106 -2.66699 159.333 -56.667 160 -162v-481
c-0.666992 -426 -187.334 -639 -560.001 -639c-374.667 -2.66699 -562.334 210.333 -563.001 639v482c0.666992 105.333 54 158.666 160 159.999zM731.501 1407c-11 6 -19.5 14.5 -25.5 25.5s-31.667 61.5 -77 151.5c-44 -88.667 -69 -138.5 -75 -149.5
s-14.5 -19.5 -25.5 -25.5s-22.5 -9 -34.5 -9c-11.333 0 -22.5 3 -33.5 9s-19.667 14.5 -26 25.5s-9.5 22.5 -9.5 34.5s22.5 62.167 67.5 150.5s70.5 137.833 76.5 148.5s14.5 19.167 25.5 25.5s22.5 9.5 34.5 9.5s23.333 -3.16699 34 -9.5s19.167 -14.833 25.5 -25.5
s32.333 -60.5 78 -149.5s68.5 -139.5 68.5 -151.5s-3.16699 -23.5 -9.5 -34.5s-15 -19.5 -26 -25.5s-22.167 -9 -33.5 -9c-12 0 -23.5 3 -34.5 9z" />
    <glyph glyph-name="Udieresis" unicode="&#xdc;" horiz-adv-x="1266" 
d="M235 1281c106.667 0 160.335 -51.665 161.002 -154.998l-1 -487c1.33301 -213.333 82.333 -320.333 243 -321c160 1.33301 239.667 108.666 239 321.999v481c1.33301 106 55 159.667 161 161c106 -2.66699 159.333 -56.667 160 -162v-481
c-0.666992 -426 -187.334 -639 -560.001 -639c-374.667 -2.66699 -562.334 210.333 -563.001 639v482c0.666992 105.333 54 158.666 160 159.999zM1011 1607c0 -26.667 -7 -52.6699 -21 -78.0029s-33.667 -45.166 -59 -59.499s-52 -21.5 -80 -21.5
c-27.333 0 -53.666 7.16699 -78.999 21.5s-45 34 -59 59s-21 51.167 -21 78.5c0 28 7 54.667 21 80s33.667 45 59 59s51.666 21 78.999 21c28 0 54.667 -7.16699 80 -21.5s45 -34.166 59 -59.499s21 -51.666 21 -78.999zM561.001 1608c0 -26.667 -7 -52.667 -21 -78
s-33.667 -45.333 -59 -60s-52 -22 -80 -22c-27.333 0 -53.666 7.16699 -78.999 21.5s-45 34 -59 59s-21 51.5 -21 79.5c0 27.333 7 53.666 21 78.999s33.667 45 59 59s51.666 21 78.999 21c28 0 54.667 -7.16699 80 -21.5s45 -34.166 59 -59.499s21 -51.333 21 -78z" />
    <glyph glyph-name="Yacute" unicode="&#xdd;" horiz-adv-x="1366" 
 />
    <glyph glyph-name="Thorn" unicode="&#xde;" horiz-adv-x="1366" 
 />
    <glyph glyph-name="germandbls" unicode="&#xdf;" horiz-adv-x="1270" 
d="M637 1279l162 0.000976562c106 0 199.667 -40 281 -120c79.333 -78.667 119 -170.334 119 -275.001v-5c-1.33301 -107.333 -29 -186.333 -83 -237c56 -55.333 84 -134 84 -236v-6c-1.33301 -105.333 -42.166 -198.333 -122.499 -279s-169.833 -121 -268.5 -121h-143
c-104 -0 -156 53.333 -156 160c0 105.333 53.333 158 160 158l127 3c54 0 81 26.333 81 79c0 54 -26.333 81 -79 81l-29 1c-108 0 -161.667 56 -161 168c0 101.333 53.333 151.333 160 150l30 -1c53.333 0 79.333 29.333 78 88c1.33301 47.333 -24.667 71 -78 71h-213
c-126.667 -21.333 -190.667 -126.666 -192 -315.999l1 -487c-0.666992 -103.333 -54.334 -155 -161.001 -155c-104.667 1.33301 -157.334 54.666 -158.001 159.999v482c0.666992 426 185.334 639 554.001 639h7v-2z" />
    <glyph glyph-name="agrave" unicode="&#xe0;" horiz-adv-x="1425" 
d="M235 -1c-27.333 0 -53.667 6.83301 -79 20.5s-45.166 33.334 -59.499 59.001s-21.5 52.5 -21.5 80.5s79.667 202.167 239 522.5s246 493.166 260 518.499s33.833 45.166 59.5 59.499s52.167 21.5 79.5 21.5c28 0 54.667 -7.16699 80 -21.5s45 -34.166 59 -59.499
s101.167 -198.166 261.5 -518.499s240.5 -494.5 240.5 -522.5s-7.16699 -54.833 -21.5 -80.5s-34.333 -45.334 -60 -59.001s-51.834 -20.5 -78.501 -20.5h-959zM932.999 321l-220 451l-220 -451h440zM658.999 1688l114 -172c19.333 -29.333 29 -53 29 -71
c0 -27.333 -22.667 -41 -68 -41h-1c-75.333 0 -138 38 -188 114l-113 170c-20 30 -30 54.333 -30 73c0 27.333 22.667 41 68 41c74.667 0 137.667 -38 189 -114z" />
    <glyph glyph-name="aacute" unicode="&#xe1;" horiz-adv-x="1425" 
d="M232 -1c-27.333 0 -53.667 6.83301 -79 20.5s-45.166 33.334 -59.499 59.001s-21.5 52.5 -21.5 80.5s79.667 202.167 239 522.5s246 493.166 260 518.499s33.833 45.166 59.5 59.499s52.167 21.5 79.5 21.5c28 0 54.667 -7.16699 80 -21.5s45 -34.166 59 -59.499
s101.167 -198.166 261.5 -518.499s240.5 -494.5 240.5 -522.5s-7.16699 -54.833 -21.5 -80.5s-34.333 -45.334 -60 -59.001s-51.834 -20.5 -78.501 -20.5h-959zM929.999 321l-220 451l-220 -451h440zM974.999 1802c45.333 0 68 -13.667 68 -41c0 -18.667 -10 -43 -30 -73
l-113 -170c-50 -76 -112.667 -114 -188 -114h-1c-45.333 0 -68 13.667 -68 41c0 18 9.66699 41.667 29 71l114 172c51.333 76 114.333 114 189 114z" />
    <glyph glyph-name="acircumflex" unicode="&#xe2;" horiz-adv-x="1425" 
d="M232 -1c-27.333 0 -53.667 6.83301 -79 20.5s-45.166 33.334 -59.499 59.001s-21.5 52.5 -21.5 80.5s79.667 202.167 239 522.5s246 493.166 260 518.499s33.833 45.166 59.5 59.499s52.167 21.5 79.5 21.5c28 0 54.667 -7.16699 80 -21.5s45 -34.166 59 -59.499
s101.167 -198.166 261.5 -518.499s240.5 -494.5 240.5 -522.5s-7.16699 -54.833 -21.5 -80.5s-34.333 -45.334 -60 -59.001s-51.834 -20.5 -78.501 -20.5h-959zM929.999 321l-220 451l-220 -451h440zM813.499 1407c-11 6 -19.6689 14.499 -26.002 25.499
s-32.166 61.167 -77.499 150.5c-43.333 -88 -68.166 -137.667 -74.499 -149s-15 -20 -26 -26s-22.167 -9 -33.5 -9c-12 0 -23.333 3 -34 9s-19.167 14.667 -25.5 26s-9.5 23 -9.5 35c0 11.333 22.333 61.333 67 150s70 138.334 76 149.001s14.5 19.167 25.5 25.5
s22.5 9.5 34.5 9.5s23.5 -3.16699 34.5 -9.5s19.5 -14.833 25.5 -25.5s31.833 -60.5 77.5 -149.5s68.5 -139.5 68.5 -151.5s-3 -23.5 -9 -34.5s-14.5 -19.5 -25.5 -25.5s-22.5 -9 -34.5 -9c-11.333 0 -22.5 3 -33.5 9z" />
    <glyph glyph-name="atilde" unicode="&#xe3;" horiz-adv-x="1425" 
d="M232 -1c-27.333 0 -53.667 6.83301 -79 20.5s-45.166 33.334 -59.499 59.001s-21.5 52.5 -21.5 80.5s79.667 202.167 239 522.5s246 493.166 260 518.499s33.833 45.166 59.5 59.499s52.167 21.5 79.5 21.5c28 0 54.667 -7.16699 80 -21.5s45 -34.166 59 -59.499
s101.167 -198.166 261.5 -518.499s240.5 -494.5 240.5 -522.5s-7.16699 -54.833 -21.5 -80.5s-34.333 -45.334 -60 -59.001s-51.834 -20.5 -78.501 -20.5h-959zM929.999 321l-220 451l-220 -451h440zM841.999 1725c16 11.333 30.998 17 44.998 17
c18.667 0 36 -10.667 52 -32l1 -2c38.667 -52.667 58 -100.667 58 -144c0 -48.667 -24.667 -91 -74 -127l-2 -1c-34.667 -25.333 -68.667 -38 -102 -38c-55.333 0 -108.666 35.333 -159.999 106l-41 55c-27.333 38.667 -50.666 51 -69.999 37
c-18.667 -14 -14.334 -40 12.999 -78l-1 -2c27.333 -36 22.333 -67.667 -15 -95c-14.667 -11.333 -29 -17 -43 -17c-18.667 0 -36 10.667 -52 32c-38.667 54 -58 102.667 -58 146c0 48.667 24.333 90.667 73 126c36 26 71 39 105 39c56 0 109.667 -35.333 161 -106l40 -55
c28 -38 51 -50.667 69 -38c18.667 14 14.334 40 -12.999 78l-3 3c-26 36.667 -20.333 68.667 17 96z" />
    <glyph glyph-name="adieresis" unicode="&#xe4;" horiz-adv-x="1425" 
d="M232 -1c-27.333 0 -53.667 6.83301 -79 20.5s-45.166 33.334 -59.499 59.001s-21.5 52.5 -21.5 80.5s79.667 202.167 239 522.5s246 493.166 260 518.499s33.833 45.166 59.5 59.499s52.167 21.5 79.5 21.5c28 0 54.667 -7.16699 80 -21.5s45 -34.166 59 -59.499
s101.167 -198.166 261.5 -518.499s240.5 -494.5 240.5 -522.5s-7.16699 -54.833 -21.5 -80.5s-34.333 -45.334 -60 -59.001s-51.834 -20.5 -78.501 -20.5h-959zM929.999 321l-220 451l-220 -451h440zM1091 1607c0 -26.667 -7 -52.668 -21 -78.001
s-33.667 -45.166 -59 -59.499s-52 -21.5 -80 -21.5c-27.333 0 -53.666 7 -78.999 21s-45 33.667 -59 59s-21 51.666 -21 78.999c0 28 7 54.667 21 80s33.667 44.833 59 58.5s51.666 20.5 78.999 20.5c28 0 54.667 -7 80 -21s45 -33.667 59 -59s21 -51.666 21 -78.999z
M639.999 1607c0 -26.667 -6.83301 -52.6699 -20.5 -78.0029s-33.167 -45.166 -58.5 -59.499s-52.333 -21.5 -81 -21.5c-26.667 0 -52.667 7.16699 -78 21.5s-45 34 -59 59s-21 51.167 -21 78.5c0 28 7 54.667 21 80s33.667 45 59 59s51.333 21 78 21
c28.667 0 55.667 -7.16699 81 -21.5s44.833 -34.166 58.5 -59.499s20.5 -51.666 20.5 -78.999z" />
    <glyph glyph-name="aring" unicode="&#xe5;" horiz-adv-x="1139" 
 />
    <glyph glyph-name="ae" unicode="&#xe6;" horiz-adv-x="1821" 
 />
    <glyph glyph-name="ccedilla" unicode="&#xe7;" 
d="M710 1279l321.002 -0.999023c106 -1.33301 159.333 -54 160 -158c-0.666992 -108 -54.334 -161.667 -161.001 -161l-319 -1c-212.667 2 -319 -104.333 -319 -319c0 -212 106.667 -318.667 320 -320h318c106.667 -2 160 -54.667 160 -158
c0 -106.667 -52.667 -160.334 -158 -161.001h-320c-426.667 -0 -640.334 213.333 -641.001 640c0 426 212.333 639 637 639h2zM570.002 -386.999c-42.667 0 -64.666 19.332 -65.999 57.999c0.666992 37.333 23 56.666 67 57.999h164c22 -0.666992 33 8.66602 33 27.999
s-11.333 29.333 -34 30c-44 -1.33301 -82.5 12.334 -115.5 41.001s-49.833 62.334 -50.5 101.001c-0.666992 38 20.666 57 63.999 57h5c42 0 63 -18.667 63 -56c1.33301 -20 12.333 -30 33 -30c112 0.666992 168 -46.666 168 -141.999c0 -96.667 -77 -145 -231 -145h-100z
" />
    <glyph glyph-name="egrave" unicode="&#xe8;" 
d="M231 1281l810 -2c99.333 -1.33301 149.333 -53 150 -155c0 -108.667 -54 -164 -162 -166h-637v-637h636c107.333 -0.666992 161 -54.667 161 -162c0 -104.667 -52.667 -157.667 -158 -159h-800c-106 0 -159.333 51.667 -160 155v964c0.666992 106 54 160 160 162z
M469 636c0.666992 106.667 53.333 160.667 158 162h322c106.667 -0.666992 160.667 -54 162 -160c-2 -106.667 -56 -160 -162 -160h-321c-106 -0.666992 -159 52 -159 158zM601.999 1688l114 -172c19.333 -29.333 29 -53 29 -71c0 -27.333 -22.667 -41 -68 -41h-1
c-75.333 0 -138 38 -188 114l-113 170c-20 30 -30 54.333 -30 73c0 27.333 22.667 41 68 41c74.667 0 137.667 -38 189 -114z" />
    <glyph glyph-name="eacute" unicode="&#xe9;" 
d="M231 1281l810 -2c99.333 -1.33301 149.333 -53 150 -155c0 -108.667 -54 -164 -162 -166h-637v-637h636c107.333 -0.666992 161 -54.667 161 -162c0 -104.667 -52.667 -157.667 -158 -159h-800c-106 0 -159.333 51.667 -160 155v964c0.666992 106 54 160 160 162z
M469 636c0.666992 106.667 53.333 160.667 158 162h322c106.667 -0.666992 160.667 -54 162 -160c-2 -106.667 -56 -160 -162 -160h-321c-106 -0.666992 -159 52 -159 158zM853.999 1802c45.333 0 68 -13.667 68 -41c0 -18.667 -10 -43 -30 -73l-113 -170
c-50 -76 -112.667 -114 -188 -114h-1c-45.333 0 -68 13.667 -68 41c0 18 9.66699 41.667 29 71l114 172c51.333 76 114.333 114 189 114z" />
    <glyph glyph-name="ecircumflex" unicode="&#xea;" 
d="M231 1281l810 -2c99.333 -1.33301 149.333 -53 150 -155c0 -108.667 -54 -164 -162 -166h-637v-637h636c107.333 -0.666992 161 -54.667 161 -162c0 -104.667 -52.667 -157.667 -158 -159h-800c-106 0 -159.333 51.667 -160 155v964c0.666992 106 54 160 160 162z
M469 636c0.666992 106.667 53.333 160.667 158 162h322c106.667 -0.666992 160.667 -54 162 -160c-2 -106.667 -56 -160 -162 -160h-321c-106 -0.666992 -159 52 -159 158zM750.499 1407c-11 6 -19.6689 14.499 -26.002 25.499s-32.166 61.167 -77.499 150.5
c-43.333 -88 -68.166 -137.667 -74.499 -149s-15 -20 -26 -26s-22.167 -9 -33.5 -9c-12 0 -23.333 3 -34 9s-19.167 14.667 -25.5 26s-9.5 23 -9.5 35c0 11.333 22.333 61.333 67 150s70 138.334 76 149.001s14.5 19.167 25.5 25.5s22.5 9.5 34.5 9.5
s23.5 -3.16699 34.5 -9.5s19.5 -14.833 25.5 -25.5s31.833 -60.5 77.5 -149.5s68.5 -139.5 68.5 -151.5s-3 -23.5 -9 -34.5s-14.5 -19.5 -25.5 -25.5s-22.5 -9 -34.5 -9c-11.333 0 -22.5 3 -33.5 9z" />
    <glyph glyph-name="edieresis" unicode="&#xeb;" 
d="M231 1281l810 -2c99.333 -1.33301 149.333 -53 150 -155c0 -108.667 -54 -164 -162 -166h-637v-637h636c107.333 -0.666992 161 -54.667 161 -162c0 -104.667 -52.667 -157.667 -158 -159h-800c-106 0 -159.333 51.667 -160 155v964c0.666992 106 54 160 160 162z
M469 636c0.666992 106.667 53.333 160.667 158 162h322c106.667 -0.666992 160.667 -54 162 -160c-2 -106.667 -56 -160 -162 -160h-321c-106 -0.666992 -159 52 -159 158zM1011 1607c0 -26.667 -7 -52.668 -21 -78.001s-33.667 -45.166 -59 -59.499s-52 -21.5 -80 -21.5
c-27.333 0 -53.666 7 -78.999 21s-45 33.667 -59 59s-21 51.666 -21 78.999c0 28 7 54.667 21 80s33.667 44.833 59 58.5s51.666 20.5 78.999 20.5c28 0 54.667 -7 80 -21s45 -33.667 59 -59s21 -51.666 21 -78.999zM559.999 1607
c0 -26.667 -6.83301 -52.6699 -20.5 -78.0029s-33.167 -45.166 -58.5 -59.499s-52.333 -21.5 -81 -21.5c-26.667 0 -52.667 7.16699 -78 21.5s-45 34 -59 59s-21 51.167 -21 78.5c0 28 7 54.667 21 80s33.667 45 59 59s51.333 21 78 21c28.667 0 55.667 -7.16699 81 -21.5
s44.833 -34.166 58.5 -59.499s20.5 -51.666 20.5 -78.999z" />
    <glyph glyph-name="igrave" unicode="&#xec;" horiz-adv-x="464" 
d="M230 1278c106.667 -0.666992 161 -53.333 163 -158v-962c-1.33301 -106 -55 -160 -161 -162c-106.667 2.66699 -160 56.667 -160 162v961c-0.666992 106 52 159 158 159zM172 1688l114 -172c19.333 -29.333 29 -53 29 -71c0 -27.333 -22.667 -41 -68 -41h-1
c-75.333 0 -138 38 -188 114l-113 170c-20 30 -30 54.333 -30 73c0 27.333 22.667 41 68 41c74.667 0 137.667 -38 189 -114z" />
    <glyph glyph-name="iacute" unicode="&#xed;" horiz-adv-x="464" 
d="M230 1278c106.667 -0.666992 161 -53.333 163 -158v-962c-1.33301 -106 -55 -160 -161 -162c-106.667 2.66699 -160 56.667 -160 162v961c-0.666992 106 52 159 158 159zM485 1802c45.333 0 68 -13.667 68 -41c0 -18.667 -10 -43 -30 -73l-113 -170
c-50 -76 -112.667 -114 -188 -114h-1c-45.333 0 -68 13.667 -68 41c0 18 9.66699 41.667 29 71l114 172c51.333 76 114.333 114 189 114z" />
    <glyph glyph-name="icircumflex" unicode="&#xee;" horiz-adv-x="464" 
d="M240 1278c106.667 -0.666992 161 -53.333 163 -158v-962c-1.33301 -106 -55 -160 -161 -162c-106.667 2.66699 -160 56.667 -160 162v961c-0.666992 106 52 159 158 159zM310.993 1407c-8.7998 6 -15.7314 14.499 -20.7979 25.499s-25.7324 61.167 -61.999 150.5
c-34.666 -88 -54.5322 -137.667 -59.5986 -149c-5.06738 -11.333 -12.001 -20 -20.8008 -26s-17.7334 -9 -26.7998 -9c-9.59961 0 -18.666 3 -27.1992 9s-15.333 14.667 -20.4004 26c-5.06641 11.333 -7.59961 23 -7.59961 35c0 11.333 17.8662 61.333 53.5996 150
c35.7324 88.667 55.999 138.334 60.7988 149.001s11.5996 19.167 20.3994 25.5s18 9.5 27.5996 9.5s18.7998 -3.16699 27.5996 -9.5s15.5996 -14.833 20.3994 -25.5s25.4658 -60.5 61.998 -149.5c36.5332 -89 54.7998 -139.5 54.7998 -151.5s-2.40039 -23.5 -7.2002 -34.5
s-11.5996 -19.5 -20.3994 -25.5s-18 -9 -27.5996 -9c-9.06641 0 -18 3 -26.7998 9z" />
    <glyph glyph-name="idieresis" unicode="&#xef;" horiz-adv-x="464" 
d="M230 1278c106.667 -0.666992 161 -53.333 163 -158v-962c-1.33301 -106 -55 -160 -161 -162c-106.667 2.66699 -160 56.667 -160 162v961c-0.666992 106 52 159 158 159zM610 1607c0 -26.667 -7 -52.668 -21 -78.001s-33.667 -45.166 -59 -59.499s-52 -21.5 -80 -21.5
c-27.333 0 -53.666 7 -78.999 21s-45 33.667 -59 59s-21 51.666 -21 78.999c0 28 7 54.667 21 80s33.667 44.833 59 58.5s51.666 20.5 78.999 20.5c28 0 54.667 -7 80 -21s45 -33.667 59 -59s21 -51.666 21 -78.999zM159 1607c0 -26.667 -6.83301 -52.6699 -20.5 -78.0029
s-33.167 -45.166 -58.5 -59.499s-52.333 -21.5 -81 -21.5c-26.667 0 -52.667 7.16699 -78 21.5s-45 34 -59 59s-21 51.167 -21 78.5c0 28 7 54.667 21 80s33.667 45 59 59s51.333 21 78 21c28.667 0 55.667 -7.16699 81 -21.5s44.833 -34.166 58.5 -59.499
s20.5 -51.666 20.5 -78.999z" />
    <glyph glyph-name="eth" unicode="&#xf0;" horiz-adv-x="1139" 
 />
    <glyph glyph-name="ntilde" unicode="&#xf1;" 
d="M254 1278c58 -4.66699 104.335 -26.668 139.002 -66.001l479 -611v537c2 91.333 47.333 138 136 140c120 -2 180.667 -50 182 -144l1 -995c-0.666992 -91.333 -61.667 -137.666 -183 -138.999c-54.667 0.666992 -99.334 22.667 -134.001 66l-481 609v-536
c-0.666992 -92 -47 -138.333 -139 -139c-120.667 0 -181.334 47 -182.001 141v998c0 92 60.667 138.333 182 139zM763.002 1725c16 11.333 30.998 17 44.998 17c18.667 0 36 -10.667 52 -32l1 -2c38.667 -52.667 58 -100.667 58 -144c0 -48.667 -24.667 -91 -74 -127l-2 -1
c-34.667 -25.333 -68.667 -38 -102 -38c-55.333 0 -108.666 35.333 -159.999 106l-41 55c-27.333 38.667 -50.666 51 -69.999 37c-18.667 -14 -14.334 -40 12.999 -78l-1 -2c27.333 -36 22.333 -67.667 -15 -95c-14.667 -11.333 -29 -17 -43 -17
c-18.667 0 -36 10.667 -52 32c-38.667 54 -58 102.667 -58 146c0 48.667 24.333 90.667 73 126c36 26 71 39 105 39c56 0 109.667 -35.333 161 -106l40 -55c28 -38 51 -50.667 69 -38c18.667 14 14.334 40 -12.999 78l-3 3c-26 36.667 -20.333 68.667 17 96z" />
    <glyph glyph-name="ograve" unicode="&#xf2;" horiz-adv-x="1425" 
d="M710 1279c108 0 213.001 -27.667 315.001 -83s182 -134.333 240 -237s87 -209.667 87 -321c0 -110.667 -28.167 -216.834 -84.5 -318.501s-135.5 -180.667 -237.5 -237s-208.667 -84.5 -320 -84.5c-110.667 0 -216.834 28.167 -318.501 84.5s-180.667 135.333 -237 237
s-84.5 207.834 -84.5 318.501c0 111.333 28.5 218.333 85.5 321s136.667 181.667 239 237s207.5 83 315.5 83zM553.501 919c-51 -27.333 -90.834 -66.666 -119.501 -117.999s-43 -105 -43 -161s14.167 -109.333 42.5 -160s67.833 -90 118.5 -118s104 -42 160 -42
c55.333 0 108.5 14 159.5 42s90.5 67.333 118.5 118s42 104 42 160s-14.333 109.667 -43 161s-68.667 90.666 -120 117.999s-103.666 41 -156.999 41c-54.667 0 -107.5 -13.667 -158.5 -41zM668 1688l114 -172c19.333 -29.333 29 -53 29 -71c0 -27.333 -22.667 -41 -68 -41
h-1c-75.333 0 -138 38 -188 114l-113 170c-20 30 -30 54.333 -30 73c0 27.333 22.667 41 68 41c74.667 0 137.667 -38 189 -114z" />
    <glyph glyph-name="oacute" unicode="&#xf3;" horiz-adv-x="1425" 
d="M710 1279c108 0 213.001 -27.667 315.001 -83s182 -134.333 240 -237s87 -209.667 87 -321c0 -110.667 -28.167 -216.834 -84.5 -318.501s-135.5 -180.667 -237.5 -237s-208.667 -84.5 -320 -84.5c-110.667 0 -216.834 28.167 -318.501 84.5s-180.667 135.333 -237 237
s-84.5 207.834 -84.5 318.501c0 111.333 28.5 218.333 85.5 321s136.667 181.667 239 237s207.5 83 315.5 83zM553.501 919c-51 -27.333 -90.834 -66.666 -119.501 -117.999s-43 -105 -43 -161s14.167 -109.333 42.5 -160s67.833 -90 118.5 -118s104 -42 160 -42
c55.333 0 108.5 14 159.5 42s90.5 67.333 118.5 118s42 104 42 160s-14.333 109.667 -43 161s-68.667 90.666 -120 117.999s-103.666 41 -156.999 41c-54.667 0 -107.5 -13.667 -158.5 -41zM968 1802c45.333 0 68 -13.667 68 -41c0 -18.667 -10 -43 -30 -73l-113 -170
c-50 -76 -112.667 -114 -188 -114h-1c-45.333 0 -68 13.667 -68 41c0 18 9.66699 41.667 29 71l114 172c51.333 76 114.333 114 189 114z" />
    <glyph glyph-name="ocircumflex" unicode="&#xf4;" horiz-adv-x="1425" 
d="M710 1279c108 0 213.001 -27.667 315.001 -83s182 -134.333 240 -237s87 -209.667 87 -321c0 -110.667 -28.167 -216.834 -84.5 -318.501s-135.5 -180.667 -237.5 -237s-208.667 -84.5 -320 -84.5c-110.667 0 -216.834 28.167 -318.501 84.5s-180.667 135.333 -237 237
s-84.5 207.834 -84.5 318.501c0 111.333 28.5 218.333 85.5 321s136.667 181.667 239 237s207.5 83 315.5 83zM553.501 919c-51 -27.333 -90.834 -66.666 -119.501 -117.999s-43 -105 -43 -161s14.167 -109.333 42.5 -160s67.833 -90 118.5 -118s104 -42 160 -42
c55.333 0 108.5 14 159.5 42s90.5 67.333 118.5 118s42 104 42 160s-14.333 109.667 -43 161s-68.667 90.666 -120 117.999s-103.666 41 -156.999 41c-54.667 0 -107.5 -13.667 -158.5 -41zM821.5 1407c-11 6 -19.6689 14.499 -26.002 25.499s-32.166 61.167 -77.499 150.5
c-43.333 -88 -68.166 -137.667 -74.499 -149s-15 -20 -26 -26s-22.167 -9 -33.5 -9c-12 0 -23.333 3 -34 9s-19.167 14.667 -25.5 26s-9.5 23 -9.5 35c0 11.333 22.333 61.333 67 150s70 138.334 76 149.001s14.5 19.167 25.5 25.5s22.5 9.5 34.5 9.5
s23.5 -3.16699 34.5 -9.5s19.5 -14.833 25.5 -25.5s31.833 -60.5 77.5 -149.5s68.5 -139.5 68.5 -151.5s-3 -23.5 -9 -34.5s-14.5 -19.5 -25.5 -25.5s-22.5 -9 -34.5 -9c-11.333 0 -22.5 3 -33.5 9z" />
    <glyph glyph-name="otilde" unicode="&#xf5;" horiz-adv-x="1425" 
d="M710 1279c108 0 213.001 -27.667 315.001 -83s182 -134.333 240 -237s87 -209.667 87 -321c0 -110.667 -28.167 -216.834 -84.5 -318.501s-135.5 -180.667 -237.5 -237s-208.667 -84.5 -320 -84.5c-110.667 0 -216.834 28.167 -318.501 84.5s-180.667 135.333 -237 237
s-84.5 207.834 -84.5 318.501c0 111.333 28.5 218.333 85.5 321s136.667 181.667 239 237s207.5 83 315.5 83zM553.501 919c-51 -27.333 -90.834 -66.666 -119.501 -117.999s-43 -105 -43 -161s14.167 -109.333 42.5 -160s67.833 -90 118.5 -118s104 -42 160 -42
c55.333 0 108.5 14 159.5 42s90.5 67.333 118.5 118s42 104 42 160s-14.333 109.667 -43 161s-68.667 90.666 -120 117.999s-103.666 41 -156.999 41c-54.667 0 -107.5 -13.667 -158.5 -41zM849 1725c16 11.333 30.998 17 44.998 17c18.667 0 36 -10.667 52 -32l1 -2
c38.667 -52.667 58 -100.667 58 -144c0 -48.667 -24.667 -91 -74 -127l-2 -1c-34.667 -25.333 -68.667 -38 -102 -38c-55.333 0 -108.666 35.333 -159.999 106l-41 55c-27.333 38.667 -50.666 51 -69.999 37c-18.667 -14 -14.334 -40 12.999 -78l-1 -2
c27.333 -36 22.333 -67.667 -15 -95c-14.667 -11.333 -29 -17 -43 -17c-18.667 0 -36 10.667 -52 32c-38.667 54 -58 102.667 -58 146c0 48.667 24.333 90.667 73 126c36 26 71 39 105 39c56 0 109.667 -35.333 161 -106l40 -55c28 -38 51 -50.667 69 -38
c18.667 14 14.334 40 -12.999 78l-3 3c-26 36.667 -20.333 68.667 17 96z" />
    <glyph glyph-name="odieresis" unicode="&#xf6;" horiz-adv-x="1425" 
d="M710 1279c108 0 213.001 -27.667 315.001 -83s182 -134.333 240 -237s87 -209.667 87 -321c0 -110.667 -28.167 -216.834 -84.5 -318.501s-135.5 -180.667 -237.5 -237s-208.667 -84.5 -320 -84.5c-110.667 0 -216.834 28.167 -318.501 84.5s-180.667 135.333 -237 237
s-84.5 207.834 -84.5 318.501c0 111.333 28.5 218.333 85.5 321s136.667 181.667 239 237s207.5 83 315.5 83zM553.501 919c-51 -27.333 -90.834 -66.666 -119.501 -117.999s-43 -105 -43 -161s14.167 -109.333 42.5 -160s67.833 -90 118.5 -118s104 -42 160 -42
c55.333 0 108.5 14 159.5 42s90.5 67.333 118.5 118s42 104 42 160s-14.333 109.667 -43 161s-68.667 90.666 -120 117.999s-103.666 41 -156.999 41c-54.667 0 -107.5 -13.667 -158.5 -41zM1098 1607c0 -26.667 -7 -52.668 -21 -78.001s-33.667 -45.166 -59 -59.499
s-52 -21.5 -80 -21.5c-27.333 0 -53.666 7 -78.999 21s-45 33.667 -59 59s-21 51.666 -21 78.999c0 28 7 54.667 21 80s33.667 44.833 59 58.5s51.666 20.5 78.999 20.5c28 0 54.667 -7 80 -21s45 -33.667 59 -59s21 -51.666 21 -78.999zM647 1607
c0 -26.667 -6.83301 -52.6699 -20.5 -78.0029s-33.167 -45.166 -58.5 -59.499s-52.333 -21.5 -81 -21.5c-26.667 0 -52.667 7.16699 -78 21.5s-45 34 -59 59s-21 51.167 -21 78.5c0 28 7 54.667 21 80s33.667 45 59 59s51.333 21 78 21c28.667 0 55.667 -7.16699 81 -21.5
s44.833 -34.166 58.5 -59.499s20.5 -51.666 20.5 -78.999z" />
    <glyph glyph-name="divide" unicode="&#xf7;" horiz-adv-x="1124" 
 />
    <glyph glyph-name="oslash" unicode="&#xf8;" horiz-adv-x="1251" 
 />
    <glyph glyph-name="ugrave" unicode="&#xf9;" horiz-adv-x="1266" 
d="M235 1281c106.667 0 160.335 -51.665 161.002 -154.998l-1 -487c1.33301 -213.333 82.333 -320.333 243 -321c160 1.33301 239.667 108.666 239 321.999v481c1.33301 106 55 159.667 161 161c106 -2.66699 159.333 -56.667 160 -162v-481
c-0.666992 -426 -187.334 -639 -560.001 -639c-374.667 -2.66699 -562.334 210.333 -563.001 639v482c0.666992 105.333 54 158.666 160 159.999zM619.001 1688l114 -172c19.333 -29.333 29 -53 29 -71c0 -27.333 -22.667 -41 -68 -41h-1c-75.333 0 -138 38 -188 114
l-113 170c-20 30 -30 54.333 -30 73c0 27.333 22.667 41 68 41c74.667 0 137.667 -38 189 -114z" />
    <glyph glyph-name="uacute" unicode="&#xfa;" horiz-adv-x="1266" 
d="M235 1281c106.667 0 160.335 -51.665 161.002 -154.998l-1 -487c1.33301 -213.333 82.333 -320.333 243 -321c160 1.33301 239.667 108.666 239 321.999v481c1.33301 106 55 159.667 161 161c106 -2.66699 159.333 -56.667 160 -162v-481
c-0.666992 -426 -187.334 -639 -560.001 -639c-374.667 -2.66699 -562.334 210.333 -563.001 639v482c0.666992 105.333 54 158.666 160 159.999zM852.001 1802c45.333 0 68 -13.667 68 -41c0 -18.667 -10 -43 -30 -73l-113 -170c-50 -76 -112.667 -114 -188 -114h-1
c-45.333 0 -68 13.667 -68 41c0 18 9.66699 41.667 29 71l114 172c51.333 76 114.333 114 189 114z" />
    <glyph glyph-name="ucircumflex" unicode="&#xfb;" horiz-adv-x="1266" 
d="M235 1281c106.667 0 160.335 -51.665 161.002 -154.998l-1 -487c1.33301 -213.333 82.333 -320.333 243 -321c160 1.33301 239.667 108.666 239 321.999v481c1.33301 106 55 159.667 161 161c106 -2.66699 159.333 -56.667 160 -162v-481
c-0.666992 -426 -187.334 -639 -560.001 -639c-374.667 -2.66699 -562.334 210.333 -563.001 639v482c0.666992 105.333 54 158.666 160 159.999zM731.501 1407c-11 6 -19.6689 14.499 -26.002 25.499s-32.166 61.167 -77.499 150.5
c-43.333 -88 -68.166 -137.667 -74.499 -149s-15 -20 -26 -26s-22.167 -9 -33.5 -9c-12 0 -23.333 3 -34 9s-19.167 14.667 -25.5 26s-9.5 23 -9.5 35c0 11.333 22.333 61.333 67 150s70 138.334 76 149.001s14.5 19.167 25.5 25.5s22.5 9.5 34.5 9.5
s23.5 -3.16699 34.5 -9.5s19.5 -14.833 25.5 -25.5s31.833 -60.5 77.5 -149.5s68.5 -139.5 68.5 -151.5s-3 -23.5 -9 -34.5s-14.5 -19.5 -25.5 -25.5s-22.5 -9 -34.5 -9c-11.333 0 -22.5 3 -33.5 9z" />
    <glyph glyph-name="udieresis" unicode="&#xfc;" horiz-adv-x="1266" 
d="M235 1281c106.667 0 160.335 -51.665 161.002 -154.998l-1 -487c1.33301 -213.333 82.333 -320.333 243 -321c160 1.33301 239.667 108.666 239 321.999v481c1.33301 106 55 159.667 161 161c106 -2.66699 159.333 -56.667 160 -162v-481
c-0.666992 -426 -187.334 -639 -560.001 -639c-374.667 -2.66699 -562.334 210.333 -563.001 639v482c0.666992 105.333 54 158.666 160 159.999zM1011 1607c0 -26.667 -7 -52.668 -21 -78.001s-33.667 -45.166 -59 -59.499s-52 -21.5 -80 -21.5
c-27.333 0 -53.666 7 -78.999 21s-45 33.667 -59 59s-21 51.666 -21 78.999c0 28 7 54.667 21 80s33.667 44.833 59 58.5s51.666 20.5 78.999 20.5c28 0 54.667 -7 80 -21s45 -33.667 59 -59s21 -51.666 21 -78.999zM560.001 1607
c0 -26.667 -6.83301 -52.6699 -20.5 -78.0029s-33.167 -45.166 -58.5 -59.499s-52.333 -21.5 -81 -21.5c-26.667 0 -52.667 7.16699 -78 21.5s-45 34 -59 59s-21 51.167 -21 78.5c0 28 7 54.667 21 80s33.667 45 59 59s51.333 21 78 21c28.667 0 55.667 -7.16699 81 -21.5
s44.833 -34.166 58.5 -59.499s20.5 -51.666 20.5 -78.999z" />
    <glyph glyph-name="yacute" unicode="&#xfd;" horiz-adv-x="1024" 
 />
    <glyph glyph-name="thorn" unicode="&#xfe;" horiz-adv-x="1139" 
 />
    <glyph glyph-name="ydieresis" unicode="&#xff;" horiz-adv-x="1249" 
d="M219 1282c53.333 0 93.5 -13 120.5 -39s121.833 -137.333 284.5 -334c165.333 200 261.5 312.833 288.5 338.5s67.167 38.5 120.5 38.5c52 0 92 -13.333 120 -40c26.667 -25.333 40 -62.666 40 -111.999v-9c0 -56.667 -28.333 -109.667 -85 -159l-327 -382l-1 -425
c-2 -104.667 -55.667 -157.667 -161 -159h-7c-100.667 0 -151 54.667 -151 164l-2 422l-315 376c-56.667 49.333 -85 102.333 -85 159v9c0 49.333 13.333 86.666 40 111.999c28 26.667 68 40 120 40zM1004 1607c0 -26.667 -7 -52.668 -21 -78.001
s-33.667 -45.166 -59 -59.499s-52 -21.5 -80 -21.5c-27.333 0 -53.666 7 -78.999 21s-45 33.667 -59 59s-21 51.666 -21 78.999c0 28 7 54.667 21 80s33.667 44.833 59 58.5s51.666 20.5 78.999 20.5c28 0 54.667 -7 80 -21s45 -33.667 59 -59s21 -51.666 21 -78.999z
M553 1607c0 -26.667 -6.83301 -52.6699 -20.5 -78.0029s-33.167 -45.166 -58.5 -59.499s-52.333 -21.5 -81 -21.5c-26.667 0 -52.667 7.16699 -78 21.5s-45 34 -59 59s-21 51.167 -21 78.5c0 28 7 54.667 21 80s33.667 45 59 59s51.333 21 78 21
c28.667 0 55.667 -7.16699 81 -21.5s44.833 -34.166 58.5 -59.499s20.5 -51.666 20.5 -78.999z" />
    <glyph glyph-name="dotlessi" unicode="&#x131;" horiz-adv-x="464" 
d="M230 1278c106.667 -0.666992 161 -53.333 163 -158v-962c-1.33301 -106 -55 -160 -161 -162c-106.667 2.66699 -160 56.667 -160 162v961c-0.666992 106 52 159 158 159z" />
    <glyph glyph-name="Lslash" unicode="&#x141;" horiz-adv-x="1139" 
 />
    <glyph glyph-name="lslash" unicode="&#x142;" horiz-adv-x="455" 
 />
    <glyph glyph-name="OE" unicode="&#x152;" horiz-adv-x="2048" 
 />
    <glyph glyph-name="oe" unicode="&#x153;" horiz-adv-x="1933" 
 />
    <glyph glyph-name="Scaron" unicode="&#x160;" horiz-adv-x="1366" 
 />
    <glyph glyph-name="scaron" unicode="&#x161;" horiz-adv-x="1024" 
 />
    <glyph glyph-name="Ydieresis" unicode="&#x178;" horiz-adv-x="1249" 
d="M219 1282c53.333 0 93.5 -13 120.5 -39s121.833 -137.333 284.5 -334c165.333 200 261.5 312.833 288.5 338.5s67.167 38.5 120.5 38.5c52 0 92 -13.333 120 -40c26.667 -25.333 40 -62.666 40 -111.999v-9c0 -56.667 -28.333 -109.667 -85 -159l-327 -382l-1 -425
c-2 -104.667 -55.667 -157.667 -161 -159h-7c-100.667 0 -151 54.667 -151 164l-2 422l-315 376c-56.667 49.333 -85 102.333 -85 159v9c0 49.333 13.333 86.666 40 111.999c28 26.667 68 40 120 40zM1003 1608c0 -26.667 -6.83301 -52.667 -20.5 -78
s-33.167 -45.333 -58.5 -60s-52.333 -22 -81 -22c-26.667 0 -52.667 7.16699 -78 21.5s-45 34 -59 59s-21 51.5 -21 79.5c0 27.333 7 53.666 21 78.999s33.667 45 59 59s51.333 21 78 21c28.667 0 55.667 -7.16699 81 -21.5s44.833 -34.166 58.5 -59.499
s20.5 -51.333 20.5 -78zM553 1608c0 -26.667 -6.83301 -52.668 -20.5 -78.001s-33.167 -45.166 -58.5 -59.499s-52.333 -21.5 -81 -21.5c-27.333 0 -53.666 7 -78.999 21s-44.833 33.5 -58.5 58.5s-20.5 51.5 -20.5 79.5c0 27.333 6.83301 53.666 20.5 78.999
s33.167 45 58.5 59s51.666 21 78.999 21c28.667 0 55.667 -7 81 -21s44.833 -33.667 58.5 -59s20.5 -51.666 20.5 -78.999z" />
    <glyph glyph-name="Zcaron" unicode="&#x17d;" horiz-adv-x="1251" 
 />
    <glyph glyph-name="zcaron" unicode="&#x17e;" horiz-adv-x="1024" 
 />
    <glyph glyph-name="florin" unicode="&#x192;" horiz-adv-x="1139" 
 />
    <glyph glyph-name="circumflex" unicode="&#x2c6;" horiz-adv-x="886" 
d="M557.5 1407c-11 6 -19.6689 14.499 -26.002 25.499s-32.166 61.167 -77.499 150.5c-43.333 -88 -68.166 -137.667 -74.499 -149s-15 -20 -26 -26s-22.167 -9 -33.5 -9c-12 0 -23.333 3 -34 9s-19.167 14.667 -25.5 26s-9.5 23 -9.5 35c0 11.333 22.333 61.333 67 150
s70 138.334 76 149.001s14.5 19.167 25.5 25.5s22.5 9.5 34.5 9.5s23.5 -3.16699 34.5 -9.5s19.5 -14.833 25.5 -25.5s31.833 -60.5 77.5 -149.5s68.5 -139.5 68.5 -151.5s-3 -23.5 -9 -34.5s-14.5 -19.5 -25.5 -25.5s-22.5 -9 -34.5 -9c-11.333 0 -22.5 3 -33.5 9z" />
    <glyph glyph-name="caron" unicode="&#x2c7;" horiz-adv-x="682" 
 />
    <glyph glyph-name="macron" unicode="&#x2c9;" horiz-adv-x="682" 
 />
    <glyph glyph-name="breve" unicode="&#x2d8;" horiz-adv-x="682" 
 />
    <glyph glyph-name="dotaccent" unicode="&#x2d9;" horiz-adv-x="682" 
 />
    <glyph glyph-name="ring" unicode="&#x2da;" horiz-adv-x="682" 
 />
    <glyph glyph-name="ogonek" unicode="&#x2db;" horiz-adv-x="682" 
 />
    <glyph glyph-name="tilde" unicode="&#x2dc;" horiz-adv-x="682" 
d="M504 1725c16 11.333 30.998 17 44.998 17c18.667 0 36 -10.667 52 -32l1 -2c38.667 -52.667 58 -100.667 58 -144c0 -48.667 -24.667 -91 -74 -127l-2 -1c-34.667 -25.333 -68.667 -38 -102 -38c-55.333 0 -108.666 35.333 -159.999 106l-41 55
c-27.333 38.667 -50.666 51 -69.999 37c-18.667 -14 -14.334 -40 12.999 -78l-1 -2c27.333 -36 22.333 -67.667 -15 -95c-14.667 -11.333 -29 -17 -43 -17c-18.667 0 -36 10.667 -52 32c-38.667 54 -58 102.667 -58 146c0 48.667 24.333 90.667 73 126c36 26 71 39 105 39
c56 0 109.667 -35.333 161 -106l40 -55c28 -38 51 -50.667 69 -38c18.667 14 14.334 40 -12.999 78l-3 3c-26 36.667 -20.333 68.667 17 96z" />
    <glyph glyph-name="hungarumlaut" unicode="&#x2dd;" horiz-adv-x="682" 
 />
    <glyph glyph-name="endash" unicode="&#x2013;" horiz-adv-x="1139" 
 />
    <glyph glyph-name="emdash" unicode="&#x2014;" horiz-adv-x="2048" 
 />
    <glyph glyph-name="quoteleft" unicode="&#x2018;" horiz-adv-x="472" 
d="M240 1501c106 0 159.334 -53.333 160.001 -160v-240c0 -107.333 -52.667 -161 -158 -161h-2c-106.667 0 -160 52.667 -160 158v242c1.33301 107.333 54.666 161 159.999 161z" />
    <glyph glyph-name="quoteright" unicode="&#x2019;" horiz-adv-x="472" 
d="M240 1501c106 0 159.334 -53.333 160.001 -160v-240c0 -107.333 -52.667 -161 -158 -161h-2c-106.667 0 -160 52.667 -160 158v242c1.33301 107.333 54.666 161 159.999 161z" />
    <glyph glyph-name="quotesinglbase" unicode="&#x201a;" horiz-adv-x="455" 
 />
    <glyph glyph-name="quotedblleft" unicode="&#x201c;" horiz-adv-x="911" 
d="M240 1501c106 0 159.334 -53.333 160.001 -160v-240c0 -107.333 -52.667 -161 -158 -161h-2c-106.667 0 -160 52.667 -160 158v242c1.33301 107.333 54.666 161 159.999 161zM666.001 1501c106 0 159.334 -53.333 160.001 -160v-240c0 -107.333 -52.667 -161 -158 -161
h-2c-106.667 0 -160 52.667 -160 158v242c1.33301 107.333 54.666 161 159.999 161z" />
    <glyph glyph-name="quotedblright" unicode="&#x201d;" horiz-adv-x="911" 
d="M240 1501c106 0 159.334 -53.333 160.001 -160v-240c0 -107.333 -52.667 -161 -158 -161h-2c-106.667 0 -160 52.667 -160 158v242c1.33301 107.333 54.666 161 159.999 161zM666.001 1501c106 0 159.334 -53.333 160.001 -160v-240c0 -107.333 -52.667 -161 -158 -161
h-2c-106.667 0 -160 52.667 -160 158v242c1.33301 107.333 54.666 161 159.999 161z" />
    <glyph glyph-name="quotedblbase" unicode="&#x201e;" horiz-adv-x="682" 
 />
    <glyph glyph-name="dagger" unicode="&#x2020;" horiz-adv-x="1139" 
 />
    <glyph glyph-name="daggerdbl" unicode="&#x2021;" horiz-adv-x="1139" 
 />
    <glyph glyph-name="bullet" unicode="&#x2022;" horiz-adv-x="717" 
 />
    <glyph glyph-name="ellipsis" unicode="&#x2026;" horiz-adv-x="2048" 
 />
    <glyph glyph-name="perthousand" unicode="&#x2030;" horiz-adv-x="2048" 
 />
    <glyph glyph-name="guilsinglleft" unicode="&#x2039;" horiz-adv-x="682" 
 />
    <glyph glyph-name="guilsinglright" unicode="&#x203a;" horiz-adv-x="682" 
 />
    <glyph glyph-name="fraction" unicode="&#x2044;" horiz-adv-x="342" 
 />
    <glyph glyph-name="fraction" unicode="&#x2215;" horiz-adv-x="342" 
 />
    <glyph glyph-name="Euro" unicode="&#x20ac;" horiz-adv-x="1312" 
d="M710 796c26.667 0 52.6689 -6.83301 78.002 -20.5s45.166 -33.167 59.499 -58.5s21.5 -52.333 21.5 -81c0 -26.667 -7 -52.667 -21 -78s-33.5 -45 -58.5 -59s-51.5 -21 -79.5 -21s-54.667 7 -80 21s-44.833 33.667 -58.5 59s-20.5 51.333 -20.5 78
c0 28.667 7 55.667 21 81s33.667 44.833 59 58.5s51.666 20.5 78.999 20.5zM391.002 640c0 -56 14.1689 -109.335 42.502 -160.002s67.833 -90 118.5 -118s104 -42 160 -42c55.333 0 108.666 14 159.999 42c24.667 13.333 46.667 29.666 66 48.999l3 -3
c10.667 12 23.334 22 38.001 30c25.333 14 51.666 21 78.999 21c26.667 0 52.667 -7 78 -21s45.166 -33.667 59.499 -59s21.5 -52 21.5 -80c0 -27.333 -7 -53.666 -21 -78.999c-11.333 -20.667 -26.333 -37.667 -45 -51c-36 -32.667 -76.333 -61.334 -121 -86.001
c-102 -56.667 -208.667 -85 -320 -85c-110.667 0 -216.834 28.167 -318.501 84.5s-180.667 135.333 -237 237s-84.5 207.834 -84.5 318.501c0 111.333 28.5 218.333 85.5 321s136.667 181.667 239 237s207.5 83 315.5 83s213 -27.667 315 -83
c46.667 -25.333 88.667 -55.333 126 -90c18 -13.333 33 -30 45 -50c14 -25.333 21 -52 21 -80c0 -27.333 -7 -53.666 -21 -78.999s-33.5 -45 -58.5 -59s-51.5 -21 -79.5 -21s-54.667 7 -80 21c-16 8.66699 -29.667 20 -41 34l-1 -1c-20 18.667 -42.333 34.667 -67 48
c-51.333 27.333 -103.666 41 -156.999 41c-54.667 0 -107.5 -13.667 -158.5 -41s-90.833 -66.666 -119.5 -117.999s-43 -105 -43 -161z" />
    <glyph glyph-name="trademark" unicode="&#x2122;" horiz-adv-x="2048" 
 />
    <glyph glyph-name="Ohm" unicode="&#x2126;" horiz-adv-x="1573" 
 />
    <glyph glyph-name="partialdiff" unicode="&#x2202;" horiz-adv-x="1012" 
 />
    <glyph glyph-name="Delta" unicode="&#x2206;" horiz-adv-x="1253" 
 />
    <glyph glyph-name="product" unicode="&#x220f;" horiz-adv-x="1686" 
 />
    <glyph glyph-name="summation" unicode="&#x2211;" horiz-adv-x="1460" 
 />
    <glyph glyph-name="minus" unicode="&#x2212;" horiz-adv-x="1196" 
 />
    <glyph glyph-name="radical" unicode="&#x221a;" horiz-adv-x="1124" 
 />
    <glyph glyph-name="infinity" unicode="&#x221e;" horiz-adv-x="1460" 
 />
    <glyph glyph-name="integral" unicode="&#x222b;" horiz-adv-x="561" 
 />
    <glyph glyph-name="approxequal" unicode="&#x2248;" horiz-adv-x="1124" 
 />
    <glyph glyph-name="notequal" unicode="&#x2260;" horiz-adv-x="1124" 
 />
    <glyph glyph-name="lessequal" unicode="&#x2264;" horiz-adv-x="1124" 
 />
    <glyph glyph-name="greaterequal" unicode="&#x2265;" horiz-adv-x="1124" 
 />
    <glyph glyph-name="lozenge" unicode="&#x25ca;" horiz-adv-x="1012" 
 />
    <glyph glyph-name="fi" unicode="&#xf001;" horiz-adv-x="1024" 
 />
    <glyph glyph-name="fi" unicode="&#xfb01;" horiz-adv-x="1024" 
 />
    <glyph glyph-name="fl" unicode="&#xf002;" horiz-adv-x="1024" 
 />
    <glyph glyph-name="fl" unicode="&#xfb02;" horiz-adv-x="1024" 
 />
    <glyph glyph-name=".null" horiz-adv-x="0" 
 />
    <glyph glyph-name="nonmarkingreturn" horiz-adv-x="569" 
 />
    <glyph glyph-name="pi1" horiz-adv-x="1124" 
 />
  </font>
</defs>
</svg>
